<?xml version="1.0" standalone="no"?><svg xmlns:xlink="http://www.w3.org/1999/xlink" xmlns="http://www.w3.org/2000/svg" viewBox="0 0 1000 727.2727272727273" preserveAspectRatio="xMaxYMax slice"><g transform="scale(1.3199142055766375)"><rect x="0" y="0" width="757.625" height="551" fill="#ffffff"/><rect x="0" y="0" width="68.88" height="68.88" fill="#ccd2f1"/><polygon points="0,0 68.88,0 0,68.88" fill="#8795df"/><rect x="68.88" y="0" width="68.88" height="68.88" fill="#a3ffb2"/><path d="M 68.88 0 A 68.88 68.88 0 0 1  137.76 68.88 L 68.88 0 A 68.88 68.88 0 0 0 137.76 68.88" fill="#7bff91"/><rect x="137.75" y="0" width="68.88" height="68.88" fill="#7788da"/><polygon points="206.63,0 206.63,68.88 137.75,68.88" fill="#bfffca"/><rect x="206.63" y="0" width="68.88" height="68.88" fill="#6074d4"/><polygon points="206.63,0 275.51,0 206.63,68.88" fill="#93ffa5"/><rect x="275.5" y="0" width="68.88" height="68.88" fill="#caffd3"/><rect x="275.5" y="0" width="68.88" height="68.88" fill="#455bcd"/><rect x="344.38" y="0" width="68.88" height="68.88" fill="#85ff9a"/><rect x="344.38" y="0" width="68.88" height="68.88" fill="#e1ffe6"/><rect x="413.25" y="0" width="68.88" height="68.88" fill="#64ff7e"/><rect x="413.25" y="0" width="68.88" height="68.88" fill="#6477d5"/><rect x="482.13" y="0" width="68.88" height="68.88" fill="#c4ffce"/><rect x="482.13" y="0" width="68.88" height="68.88" fill="#f2f3fb"/><rect x="551" y="0" width="68.88" height="68.88" fill="#dfe3f6"/><rect x="551" y="0" width="68.88" height="68.88" fill="#5eff79"/><rect x="619.88" y="0" width="68.88" height="68.88" fill="#687ad6"/><path d="M 619.88 0 A 68.88 68.88 0 0 0 688.76 68.88 L 688.76 0" fill="#f9fffa"/><rect x="688.75" y="0" width="68.88" height="68.88" fill="#576cd2"/><rect x="688.75" y="0" width="68.88" height="68.88" fill="#b5ffc1"/><rect x="0" y="68.88" width="68.88" height="68.88" fill="#54ff70"/><path d="M 0 137.76 A 68.88 68.88 0 0 0 68.88 68.88 L 0 68.88" fill="#43ff62"/><rect x="68.88" y="68.88" width="68.88" height="68.88" fill="#fcfffd"/><path d="M 68.88 137.76 A 68.88 68.88 0 0 0 137.76 68.88 L 68.88 68.88" fill="#cdffd5"/><rect x="137.75" y="68.88" width="68.88" height="68.88" fill="#fefeff"/><path d="M 137.75 137.76 A 68.88 68.88 0 0 1  206.63 68.88 L 137.75 137.76 A 68.88 68.88 0 0 0 206.63 68.88" fill="#4dff6b"/><rect x="206.63" y="68.88" width="68.88" height="68.88" fill="#b8ffc4"/><polygon points="206.63,68.88 275.51,68.88 275.51,137.76" fill="#6679d6"/><rect x="275.5" y="68.88" width="68.88" height="68.88" fill="#34ff56"/><polygon points="344.38,68.88 344.38,137.76 275.5,137.76" fill="#d7dcf4"/><rect x="344.38" y="68.88" width="68.88" height="68.88" fill="#354dc9"/><path d="M 344.38 68.88 A 68.88 68.88 0 0 1  413.26 137.76 L 344.38 68.88 A 68.88 68.88 0 0 0 413.26 137.76" fill="#dee2f6"/><rect x="413.25" y="68.88" width="68.88" height="68.88" fill="#ceffd6"/><path d="M 413.25 68.88 A 68.88 68.88 0 0 0 482.13 137.76 L 482.13 68.88" fill="#92ffa4"/><rect x="482.13" y="68.88" width="68.88" height="68.88" fill="#4fff6c"/><polygon points="482.13,68.88 551.01,137.76 482.13,137.76" fill="#e5e8f8"/><rect x="551" y="68.88" width="68.88" height="68.88" fill="#99ffaa"/><path d="M 551 137.76 A 68.88 68.88 0 0 1  619.88 68.88 L 551 137.76 A 68.88 68.88 0 0 0 619.88 68.88" fill="#fdfdfe"/><rect x="619.88" y="68.88" width="68.88" height="68.88" fill="#fafffb"/><rect x="619.88" y="68.88" width="68.88" height="68.88" fill="#f5f6fc"/><rect x="688.75" y="68.88" width="68.88" height="68.88" fill="#7889db"/><rect x="688.75" y="68.88" width="68.88" height="68.88" fill="#344dc9"/><rect x="0" y="137.75" width="68.88" height="68.88" fill="#5aff76"/><rect x="0" y="137.75" width="68.88" height="68.88" fill="#ced4f2"/><rect x="68.88" y="137.75" width="68.88" height="68.88" fill="#65ff7f"/><rect x="68.88" y="137.75" width="68.88" height="68.88" fill="#354ec9"/><rect x="137.75" y="137.75" width="68.88" height="68.88" fill="#576bd2"/><path d="M 137.75 206.63 A 68.88 68.88 0 0 1  206.63 137.75 L 137.75 206.63 A 68.88 68.88 0 0 0 206.63 137.75" fill="#5dff78"/><rect x="206.63" y="137.75" width="68.88" height="68.88" fill="#dadff5"/><polygon points="275.51,137.75 275.51,206.63 206.63,206.63" fill="#3850ca"/><rect x="275.5" y="137.75" width="68.88" height="68.88" fill="#95ffa7"/><path d="M 275.5 137.75 A 68.88 68.88 0 0 1  344.38 206.63 L 275.5 137.75 A 68.88 68.88 0 0 0 344.38 206.63" fill="#f4f5fc"/><rect x="344.38" y="137.75" width="68.88" height="68.88" fill="#edeffa"/><rect x="344.38" y="137.75" width="68.88" height="68.88" fill="#8a98e0"/><rect x="413.25" y="137.75" width="68.88" height="68.88" fill="#d9ddf5"/><path d="M 413.25 206.63 A 68.88 68.88 0 0 1  482.13 137.75 L 482.13 206.63" fill="#92ffa4"/><rect x="482.13" y="137.75" width="68.88" height="68.88" fill="#bcc4ed"/><path d="M 482.13 206.63 A 68.88 68.88 0 0 1  551.01 137.75 L 482.13 206.63 A 68.88 68.88 0 0 0 551.01 137.75" fill="#7fff94"/><rect x="551" y="137.75" width="68.88" height="68.88" fill="#4aff68"/><path d="M 551 206.63 A 68.88 68.88 0 0 1  619.88 137.75 L 619.88 206.63" fill="#e9ecf9"/><rect x="619.88" y="137.75" width="68.88" height="68.88" fill="#5368d1"/><polygon points="619.88,137.75 688.76,137.75 688.76,206.63" fill="#6b7dd7"/><rect x="688.75" y="137.75" width="68.88" height="68.88" fill="#dadef5"/><polygon points="688.75,137.75 757.63,137.75 688.75,206.63" fill="#c4ffce"/><rect x="0" y="206.63" width="68.88" height="68.88" fill="#4058cc"/><path d="M 0 206.63 A 68.88 68.88 0 0 0 68.88 275.51 L 68.88 206.63" fill="#7384d9"/><rect x="68.88" y="206.63" width="68.88" height="68.88" fill="#86ff9a"/><polygon points="137.76,206.63 137.76,275.51 68.88,275.51" fill="#73ff8a"/><rect x="137.75" y="206.63" width="68.88" height="68.88" fill="#5066d0"/><path d="M 137.75 275.51 A 68.88 68.88 0 0 0 206.63 206.63 L 137.75 206.63" fill="#b7ffc3"/><rect x="206.63" y="206.63" width="68.88" height="68.88" fill="#cbffd4"/><rect x="206.63" y="206.63" width="68.88" height="68.88" fill="#9dffad"/><rect x="275.5" y="206.63" width="68.88" height="68.88" fill="#5e72d4"/><polygon points="275.5,206.63 344.38,275.51 275.5,275.51" fill="#9ca8e4"/><rect x="344.38" y="206.63" width="68.88" height="68.88" fill="#8594de"/><rect x="344.38" y="206.63" width="68.88" height="68.88" fill="#c0c7ee"/><rect x="413.25" y="206.63" width="68.88" height="68.88" fill="#6eff86"/><rect x="413.25" y="206.63" width="68.88" height="68.88" fill="#4158cc"/><rect x="482.13" y="206.63" width="68.88" height="68.88" fill="#acffba"/><path d="M 482.13 275.51 A 68.88 68.88 0 0 0 551.01 206.63 L 482.13 206.63" fill="#4058cc"/><rect x="551" y="206.63" width="68.88" height="68.88" fill="#d8dcf4"/><path d="M 551 206.63 A 68.88 68.88 0 0 1  619.88 275.51 L 551 206.63 A 68.88 68.88 0 0 0 619.88 275.51" fill="#bec6ed"/><rect x="619.88" y="206.63" width="68.88" height="68.88" fill="#fbfffc"/><rect x="619.88" y="206.63" width="68.88" height="68.88" fill="#edfff0"/><rect x="688.75" y="206.63" width="68.88" height="68.88" fill="#3952ca"/><polygon points="688.75,206.63 757.63,275.51 688.75,275.51" fill="#5f73d4"/><rect x="0" y="275.5" width="68.88" height="68.88" fill="#f5fff6"/><path d="M 0 344.38 A 68.88 68.88 0 0 0 68.88 275.5 L 0 275.5" fill="#fafbfe"/><rect x="68.88" y="275.5" width="68.88" height="68.88" fill="#c6cdf0"/><rect x="68.88" y="275.5" width="68.88" height="68.88" fill="#6bff84"/><rect x="137.75" y="275.5" width="68.88" height="68.88" fill="#9ba7e4"/><path d="M 137.75 275.5 A 68.88 68.88 0 0 1 206.63 344.38 L 137.75 344.38" fill="#7cff92"/><rect x="206.63" y="275.5" width="68.88" height="68.88" fill="#7082d9"/><path d="M 206.63 275.5 A 68.88 68.88 0 0 0 275.51 344.38 L 275.51 275.5" fill="#bdffc8"/><rect x="275.5" y="275.5" width="68.88" height="68.88" fill="#c0ffcb"/><polygon points="275.5,275.5 344.38,275.5 275.5,344.38" fill="#7384d9"/><rect x="344.38" y="275.5" width="68.88" height="68.88" fill="#88ff9b"/><polygon points="344.38,275.5 413.26,344.38 344.38,344.38" fill="#ebffef"/><rect x="413.25" y="275.5" width="68.88" height="68.88" fill="#9ba7e4"/><polygon points="413.25,275.5 482.13,275.5 413.25,344.38" fill="#8997df"/><rect x="482.13" y="275.5" width="68.88" height="68.88" fill="#3750c9"/><rect x="482.13" y="275.5" width="68.88" height="68.88" fill="#d4ffdb"/><rect x="551" y="275.5" width="68.88" height="68.88" fill="#97ffa8"/><path d="M 551 275.5 A 68.88 68.88 0 0 1 619.88 344.38 L 551 344.38" fill="#ceffd6"/><rect x="619.88" y="275.5" width="68.88" height="68.88" fill="#cfffd7"/><rect x="619.88" y="275.5" width="68.88" height="68.88" fill="#7f8edd"/><rect x="688.75" y="275.5" width="68.88" height="68.88" fill="#8dffa0"/><polygon points="688.75,275.5 757.63,275.5 757.63,344.38" fill="#c2caef"/><rect x="0" y="344.38" width="68.88" height="68.88" fill="#f1f3fb"/><path d="M 0 413.26 A 68.88 68.88 0 0 0 68.88 344.38 L 0 344.38" fill="#81ff96"/><rect x="68.88" y="344.38" width="68.88" height="68.88" fill="#929fe2"/><path d="M 68.88 344.38 A 68.88 68.88 0 0 1  137.76 413.26 L 68.88 344.38 A 68.88 68.88 0 0 0 137.76 413.26" fill="#38ff59"/><rect x="137.75" y="344.38" width="68.88" height="68.88" fill="#76ff8d"/><polygon points="137.75,344.38 206.63,344.38 206.63,413.26" fill="#79ff90"/><rect x="206.63" y="344.38" width="68.88" height="68.88" fill="#d0ffd8"/><polygon points="206.63,344.38 275.51,344.38 275.51,413.26" fill="#6eff86"/><rect x="275.5" y="344.38" width="68.88" height="68.88" fill="#6b7dd7"/><rect x="275.5" y="344.38" width="68.88" height="68.88" fill="#697bd7"/><rect x="344.38" y="344.38" width="68.88" height="68.88" fill="#6b7dd7"/><polygon points="344.38,344.38 413.26,344.38 344.38,413.26" fill="#cfd4f2"/><rect x="413.25" y="344.38" width="68.88" height="68.88" fill="#d7ffde"/><path d="M 413.25 413.26 A 68.88 68.88 0 0 1  482.13 344.38 L 482.13 413.26" fill="#47ff65"/><rect x="482.13" y="344.38" width="68.88" height="68.88" fill="#aaffb8"/><polygon points="482.13,344.38 551.01,344.38 482.13,413.26" fill="#c3caef"/><rect x="551" y="344.38" width="68.88" height="68.88" fill="#a7b1e7"/><polygon points="551,344.38 619.88,413.26 551,413.26" fill="#4bff69"/><rect x="619.88" y="344.38" width="68.88" height="68.88" fill="#d2d7f3"/><path d="M 619.88 413.26 A 68.88 68.88 0 0 0 688.76 344.38 L 619.88 344.38" fill="#c2ffcc"/><rect x="688.75" y="344.38" width="68.88" height="68.88" fill="#94a1e2"/><path d="M 688.75 344.38 A 68.88 68.88 0 0 1 757.63 413.26 L 688.75 413.26" fill="#3e55cb"/><rect x="0" y="413.25" width="68.88" height="68.88" fill="#44ff63"/><polygon points="68.88,413.25 68.88,482.13 0,482.13" fill="#7c8cdc"/><rect x="68.88" y="413.25" width="68.88" height="68.88" fill="#6578d6"/><rect x="68.88" y="413.25" width="68.88" height="68.88" fill="#eef0fa"/><rect x="137.75" y="413.25" width="68.88" height="68.88" fill="#d7dcf4"/><polygon points="137.75,413.25 206.63,482.13 137.75,482.13" fill="#dde1f6"/><rect x="206.63" y="413.25" width="68.88" height="68.88" fill="#8392de"/><rect x="206.63" y="413.25" width="68.88" height="68.88" fill="#aeffbc"/><rect x="275.5" y="413.25" width="68.88" height="68.88" fill="#5dff78"/><rect x="275.5" y="413.25" width="68.88" height="68.88" fill="#fdfdfe"/><rect x="344.38" y="413.25" width="68.88" height="68.88" fill="#d4d9f4"/><rect x="344.38" y="413.25" width="68.88" height="68.88" fill="#5469d1"/><rect x="413.25" y="413.25" width="68.88" height="68.88" fill="#bcc4ed"/><polygon points="413.25,413.25 482.13,413.25 482.13,482.13" fill="#6aff83"/><rect x="482.13" y="413.25" width="68.88" height="68.88" fill="#acffba"/><polygon points="482.13,413.25 551.01,413.25 482.13,482.13" fill="#b9ffc5"/><rect x="551" y="413.25" width="68.88" height="68.88" fill="#e0e4f7"/><rect x="551" y="413.25" width="68.88" height="68.88" fill="#dfe3f6"/><rect x="619.88" y="413.25" width="68.88" height="68.88" fill="#43ff63"/><rect x="619.88" y="413.25" width="68.88" height="68.88" fill="#5cff77"/><rect x="688.75" y="413.25" width="68.88" height="68.88" fill="#4d62cf"/><polygon points="757.63,413.25 757.63,482.13 688.75,482.13" fill="#435acd"/><rect x="0" y="482.13" width="68.88" height="68.88" fill="#dde1f6"/><polygon points="0,482.13 68.88,482.13 68.88,551.01" fill="#7283d9"/><rect x="68.88" y="482.13" width="68.88" height="68.88" fill="#8291dd"/><rect x="68.88" y="482.13" width="68.88" height="68.88" fill="#dbdff5"/><rect x="137.75" y="482.13" width="68.88" height="68.88" fill="#a6b1e7"/><rect x="137.75" y="482.13" width="68.88" height="68.88" fill="#a2ffb2"/><rect x="206.63" y="482.13" width="68.88" height="68.88" fill="#8998df"/><path d="M 206.63 551.01 A 68.88 68.88 0 0 1  275.51 482.13 L 275.51 551.01" fill="#c3ffcd"/><rect x="275.5" y="482.13" width="68.88" height="68.88" fill="#c8ffd1"/><rect x="275.5" y="482.13" width="68.88" height="68.88" fill="#50ff6d"/><rect x="344.38" y="482.13" width="68.88" height="68.88" fill="#dbdff5"/><polygon points="413.26,482.13 413.26,551.01 344.38,551.01" fill="#fbfbfe"/><rect x="413.25" y="482.13" width="68.88" height="68.88" fill="#9faae5"/><polygon points="413.25,482.13 482.13,551.01 413.25,551.01" fill="#a9b3e8"/><rect x="482.13" y="482.13" width="68.88" height="68.88" fill="#f4fff6"/><path d="M 482.13 551.01 A 68.88 68.88 0 0 0 551.01 482.13 L 482.13 482.13" fill="#56ff72"/><rect x="551" y="482.13" width="68.88" height="68.88" fill="#a3aee6"/><path d="M 551 482.13 A 68.88 68.88 0 0 1  619.88 551.01 L 551 482.13 A 68.88 68.88 0 0 0 619.88 551.01" fill="#4b61cf"/><rect x="619.88" y="482.13" width="68.88" height="68.88" fill="#cdffd5"/><polygon points="619.88,482.13 688.76,482.13 619.88,551.01" fill="#9da9e5"/><rect x="688.75" y="482.13" width="68.88" height="68.88" fill="#3951ca"/><rect x="688.75" y="482.13" width="68.88" height="68.88" fill="#bbc3ed"/></g></svg>