<svg width="25" height="24" viewBox="0 0 25 24" fill="none" xmlns="http://www.w3.org/2000/svg">
<path fill-rule="evenodd" clip-rule="evenodd" d="M13.2972 0.489992C13.204 0.393827 13.0924 0.317368 12.9691 0.265154C12.8457 0.21294 12.7132 0.186035 12.5792 0.186035C12.4453 0.186035 12.3127 0.21294 12.1894 0.265154C12.066 0.317368 11.9544 0.393827 11.8612 0.489992L9.76122 2.65499L6.82522 1.96899C6.69483 1.9385 6.55964 1.9345 6.42768 1.95723C6.29572 1.97997 6.16966 2.02898 6.057 2.10135C5.94434 2.17373 5.84735 2.26799 5.77181 2.37856C5.69627 2.48912 5.64369 2.61373 5.61722 2.74499L5.02122 5.70199L2.18122 6.71199C2.055 6.7568 1.93907 6.8265 1.84031 6.91697C1.74155 7.00743 1.66197 7.11682 1.60628 7.23863C1.5506 7.36044 1.51996 7.49219 1.51617 7.62607C1.51238 7.75995 1.53552 7.89323 1.58422 8.01799L2.68122 10.827L0.837218 13.213C0.755341 13.3189 0.695568 13.4402 0.661445 13.5697C0.627321 13.6991 0.619541 13.8341 0.638566 13.9667C0.657592 14.0992 0.703035 14.2265 0.772201 14.3412C0.841367 14.4558 0.932848 14.5554 1.04122 14.634L3.48322 16.404L3.22122 19.409C3.20963 19.5424 3.22494 19.6767 3.26624 19.8041C3.30754 19.9314 3.37399 20.0492 3.46166 20.1504C3.54932 20.2516 3.65642 20.3341 3.77658 20.3931C3.89675 20.4522 4.02755 20.4865 4.16122 20.494L7.17322 20.663L8.57722 23.331C8.63954 23.4496 8.72505 23.5544 8.82867 23.6394C8.9323 23.7243 9.05193 23.7875 9.18047 23.8253C9.309 23.863 9.44381 23.8746 9.5769 23.8593C9.70999 23.8439 9.83864 23.802 9.95522 23.736L12.5792 22.25L15.2032 23.736C15.3198 23.802 15.4484 23.8439 15.5815 23.8593C15.7146 23.8746 15.8494 23.863 15.978 23.8253C16.1065 23.7875 16.2261 23.7243 16.3298 23.6394C16.4334 23.5544 16.5189 23.4496 16.5812 23.331L17.9852 20.663L20.9962 20.493C21.1298 20.4855 21.2605 20.4512 21.3806 20.3922C21.5007 20.3333 21.6077 20.2508 21.6954 20.1497C21.783 20.0486 21.8495 19.931 21.8909 19.8038C21.9323 19.6765 21.9477 19.5423 21.9362 19.409L21.6762 16.404L24.1162 14.634C24.2245 14.5555 24.316 14.456 24.3851 14.3415C24.4543 14.227 24.4998 14.0997 24.5189 13.9673C24.538 13.8349 24.5304 13.7 24.4964 13.5706C24.4625 13.4412 24.4029 13.32 24.3212 13.214L22.4772 10.827L23.5742 8.01699C23.6228 7.89235 23.6458 7.75922 23.642 7.6255C23.6382 7.49179 23.6076 7.36019 23.5521 7.23851C23.4965 7.11682 23.4171 7.00753 23.3185 6.91709C23.2199 6.82665 23.1042 6.75691 22.9782 6.71199L20.1372 5.70199L19.5412 2.74499C19.5147 2.61373 19.4622 2.48912 19.3866 2.37856C19.3111 2.26799 19.2141 2.17373 19.1014 2.10135C18.9888 2.02898 18.8627 1.97997 18.7308 1.95723C18.5988 1.9345 18.4636 1.9385 18.3332 1.96899L15.3962 2.65499L13.2962 0.489992H13.2972ZM18.1092 9.52999L17.0492 8.46999L11.5792 13.94L9.10922 11.47L8.04922 12.53L11.5792 16.06L18.1092 9.52999Z" fill="url(#paint0_linear_4_45)"/>
<defs>
<linearGradient id="paint0_linear_4_45" x1="27.4102" y1="-0.127008" x2="-3.69378" y2="0.370992" gradientUnits="userSpaceOnUse">
<stop stop-color="#53C1DE"/>
<stop offset="1" stop-color="#D2D943"/>
</linearGradient>
</defs>
</svg>
