<svg width="15" height="16" viewBox="0 0 15 16" fill="none" xmlns="http://www.w3.org/2000/svg">
<path fill-rule="evenodd" clip-rule="evenodd" d="M14.2454 6.66667C14.2454 12 7.57878 16 7.57878 16C7.57878 16 0.912109 12 0.912109 6.66667C0.912109 2.98467 3.89678 0 7.57878 0C11.2608 0 14.2454 2.98467 14.2454 6.66667ZM13.2454 6.66667C13.2454 8.92667 11.8168 11.0147 10.2054 12.6267C9.39681 13.4298 8.51773 14.1587 7.57878 14.8047C6.63978 14.1583 5.76069 13.4289 4.95211 12.6253C3.34144 11.0147 1.91211 8.92667 1.91211 6.66667C1.91211 5.16377 2.50913 3.72243 3.57184 2.65973C4.63454 1.59702 6.07588 1 7.57878 1C9.08167 1 10.523 1.59702 11.5857 2.65973C12.6484 3.72243 13.2454 5.16377 13.2454 6.66667Z" fill="#131313" fill-opacity="0.67"/>
</svg>
