<?xml version="1.0" standalone="no"?><svg xmlns:xlink="http://www.w3.org/1999/xlink" xmlns="http://www.w3.org/2000/svg" viewBox="0 0 1000 666.6666666666666" preserveAspectRatio="xMaxYMax slice"><g transform="scale(1.2099213551119177)"><rect x="0" y="0" width="826.5" height="551" fill="#ffffff"/><rect x="0" y="0" width="68.88" height="68.88" fill="#d0d8f9"/><polygon points="0,0 68.88,0 0,68.88" fill="#657feb"/><rect x="68.88" y="0" width="68.88" height="68.88" fill="#ffdae3"/><path d="M 68.88 68.88 A 68.88 68.88 0 0 1  137.76 0 L 68.88 68.88 A 68.88 68.88 0 0 0 137.76 0" fill="#ff7495"/><rect x="137.75" y="0" width="68.88" height="68.88" fill="#4f6de8"/><rect x="137.75" y="0" width="68.88" height="68.88" fill="#ffa9be"/><rect x="206.625" y="0" width="68.875" height="68.875" fill="#ffffff"/><rect x="206.63" y="0" width="34.44" height="34.44" fill="#ff7898"/><path d="M 206.63 34.44 A 34.44 34.44 0 0 0 241.07 0 L 206.63 0" fill="#90a3f1"/><rect x="241.06" y="0" width="34.44" height="34.44" fill="#ff90aa"/><path d="M 241.06 0 A 34.44 34.44 0 0 0 275.5 34.44 L 275.5 0" fill="#2146e2"/><rect x="206.63" y="34.44" width="34.44" height="34.44" fill="#254ae3"/><path d="M 206.63 34.44 A 34.44 34.44 0 0 1 241.07 68.88 L 206.63 68.88" fill="#fff6f8"/><rect x="241.06" y="34.44" width="34.44" height="34.44" fill="#c7d0f8"/><path d="M 241.06 68.88 A 34.44 34.44 0 0 1  275.5 34.44 L 275.5 68.88" fill="#99aaf2"/><rect x="275.5" y="0" width="68.875" height="68.875" fill="#ffffff"/><rect x="275.5" y="0" width="34.44" height="34.44" fill="#ff9cb4"/><path d="M 275.5 34.44 A 34.44 34.44 0 0 1 309.94 0 L 309.94 8.61 A 25.83 25.83 0 0 0 284.11 34.44" fill="#ff92ac"/><rect x="309.94" y="0" width="34.44" height="34.44" fill="#d7defa"/><path d="M 309.94 0 A 34.44 34.44 0 0 1 344.38 34.44 L 335.77 34.44 A 25.83 25.83 0 0 0 309.94 8.61" fill="#b2bff5"/><rect x="275.5" y="34.44" width="34.44" height="34.44" fill="#ff83a1"/><path d="M 275.5 34.44 A 34.44 34.44 0 0 0 309.94 68.88 L 309.94 60.269999999999996 A 25.83 25.83 0 0 1 284.11 34.44" fill="#dde3fb"/><rect x="309.94" y="34.44" width="34.44" height="34.44" fill="#ff3766"/><path d="M 309.94 68.88 A 34.44 34.44 0 0 0 344.38 34.44 L 335.77 34.44 A 25.83 25.83 0 0 1 309.94 60.269999999999996" fill="#d2d9f9"/><rect x="344.375" y="0" width="68.875" height="68.875" fill="#ffffff"/><rect x="344.38" y="0" width="34.44" height="34.44" fill="#ff426f"/><path d="M 344.38 34.44 A 34.44 34.44 0 0 1 378.82 0 L 378.82 8.61 A 25.83 25.83 0 0 0 352.99 34.44" fill="#95a7f1"/><rect x="378.81" y="0" width="34.44" height="34.44" fill="#ff3b6a"/><path d="M 378.81 0 A 34.44 34.44 0 0 1 413.25 34.44 L 404.64 34.44 A 25.83 25.83 0 0 0 378.81 8.61" fill="#4e6ce8"/><rect x="344.38" y="34.44" width="34.44" height="34.44" fill="#ffbece"/><path d="M 344.38 34.44 A 34.44 34.44 0 0 0 378.82 68.88 L 378.82 60.269999999999996 A 25.83 25.83 0 0 1 352.99 34.44" fill="#bac6f6"/><rect x="378.81" y="34.44" width="34.44" height="34.44" fill="#8196ef"/><path d="M 378.81 68.88 A 34.44 34.44 0 0 0 413.25 34.44 L 404.64 34.44 A 25.83 25.83 0 0 1 378.81 60.269999999999996" fill="#acbaf4"/><rect x="413.25" y="0" width="68.875" height="68.875" fill="#ffffff"/><rect x="413.25" y="0" width="34.44" height="34.44" fill="#ff668a"/><polygon points="447.69,0 447.69,34.44 413.25,34.44" fill="#5e79ea"/><rect x="447.69" y="0" width="34.44" height="34.44" fill="#ffc4d2"/><polygon points="447.69,0 482.13,34.44 447.69,34.44" fill="#bdc8f6"/><rect x="413.25" y="34.44" width="34.44" height="34.44" fill="#1e44e2"/><polygon points="413.25,34.44 447.69,34.44 413.25,68.88" fill="#1b42e1"/><rect x="447.69" y="34.44" width="34.44" height="34.44" fill="#ff698d"/><polygon points="447.69,34.44 482.13,34.44 482.13,68.88" fill="#ffa5ba"/><rect x="482.125" y="0" width="68.875" height="68.875" fill="#ffffff"/><rect x="482.13" y="0" width="34.44" height="34.44" fill="#ffc7d4"/><path d="M 482.13 34.44 A 34.44 34.44 0 0 1 516.5699999999999 0 L 516.5699999999999 8.61 A 25.83 25.83 0 0 0 490.74 34.44" fill="#ff547c"/><rect x="516.56" y="0" width="34.44" height="34.44" fill="#7f94ee"/><path d="M 516.56 0 A 34.44 34.44 0 0 1 551 34.44 L 542.39 34.44 A 25.83 25.83 0 0 0 516.56 8.61" fill="#7b91ee"/><rect x="482.13" y="34.44" width="34.44" height="34.44" fill="#2549e3"/><path d="M 482.13 34.44 A 34.44 34.44 0 0 0 516.5699999999999 68.88 L 516.5699999999999 60.269999999999996 A 25.83 25.83 0 0 1 490.74 34.44" fill="#617bea"/><rect x="516.56" y="34.44" width="34.44" height="34.44" fill="#ff87a3"/><path d="M 516.56 68.88 A 34.44 34.44 0 0 0 551 34.44 L 542.39 34.44 A 25.83 25.83 0 0 1 516.56 60.269999999999996" fill="#ff9eb5"/><rect x="551" y="0" width="68.88" height="68.88" fill="#ffc5d3"/><polygon points="551,0 619.88,68.88 551,68.88" fill="#ff6187"/><rect x="619.88" y="0" width="68.88" height="68.88" fill="#ffd7e1"/><polygon points="619.88,0 688.76,0 619.88,68.88" fill="#ff9bb3"/><rect x="688.75" y="0" width="68.875" height="68.875" fill="#ffffff"/><rect x="688.75" y="0" width="34.44" height="34.44" fill="#ff91ab"/><path d="M 688.75 0 A 34.44 34.44 0 0 1 723.19 34.44 L 688.75 34.44" fill="#3255e4"/><rect x="723.19" y="0" width="34.44" height="34.44" fill="#dae1fa"/><path d="M 723.19 34.44 A 34.44 34.44 0 0 1  757.6300000000001 0 L 757.6300000000001 34.44" fill="#ff7293"/><rect x="688.75" y="34.44" width="34.44" height="34.44" fill="#ff577f"/><path d="M 688.75 68.88 A 34.44 34.44 0 0 0 723.19 34.44 L 688.75 34.44" fill="#ff82a0"/><rect x="723.19" y="34.44" width="34.44" height="34.44" fill="#ff517b"/><path d="M 723.19 34.44 A 34.44 34.44 0 0 0 757.6300000000001 68.88 L 757.6300000000001 34.44" fill="#eaeefc"/><rect x="757.625" y="0" width="68.875" height="68.875" fill="#ffffff"/><rect x="757.63" y="0" width="34.44" height="34.44" fill="#264be3"/><path d="M 757.63 34.44 A 34.44 34.44 0 0 1 792.0699999999999 0 L 792.0699999999999 8.61 A 25.83 25.83 0 0 0 766.24 34.44" fill="#e4e9fc"/><rect x="792.06" y="0" width="34.44" height="34.44" fill="#ffbccc"/><path d="M 792.06 0 A 34.44 34.44 0 0 1 826.5 34.44 L 817.89 34.44 A 25.83 25.83 0 0 0 792.06 8.61" fill="#ff82a0"/><rect x="757.63" y="34.44" width="34.44" height="34.44" fill="#ffc4d2"/><path d="M 757.63 34.44 A 34.44 34.44 0 0 0 792.0699999999999 68.88 L 792.0699999999999 60.269999999999996 A 25.83 25.83 0 0 1 766.24 34.44" fill="#4d6be8"/><rect x="792.06" y="34.44" width="34.44" height="34.44" fill="#ffbece"/><path d="M 792.06 68.88 A 34.44 34.44 0 0 0 826.5 34.44 L 817.89 34.44 A 25.83 25.83 0 0 1 792.06 60.269999999999996" fill="#ff7a9a"/><rect x="0" y="68.875" width="68.875" height="68.875" fill="#ffffff"/><rect x="0" y="68.88" width="34.44" height="34.44" fill="#ff6b8e"/><path d="M 0 68.88 A 34.44 34.44 0 0 0 34.44 103.32 L 34.44 68.88" fill="#ffa4ba"/><rect x="34.44" y="68.88" width="34.44" height="34.44" fill="#ffa3b9"/><path d="M 34.44 103.32 A 34.44 34.44 0 0 0 68.88 68.88 L 34.44 68.88" fill="#ffc1d0"/><rect x="0" y="103.31" width="34.44" height="34.44" fill="#254ae3"/><path d="M 0 137.75 A 34.44 34.44 0 0 1  34.44 103.31 L 34.44 137.75" fill="#ffa1b7"/><rect x="34.44" y="103.31" width="34.44" height="34.44" fill="#f4f5fe"/><path d="M 34.44 103.31 A 34.44 34.44 0 0 1 68.88 137.75 L 34.44 137.75" fill="#fcfcff"/><rect x="68.88" y="68.88" width="68.88" height="68.88" fill="#ff678b"/><rect x="68.88" y="68.88" width="68.88" height="68.88" fill="#ffd9e2"/><rect x="137.75" y="68.875" width="68.875" height="68.875" fill="#ffffff"/><rect x="137.75" y="68.88" width="34.44" height="34.44" fill="#ff688c"/><polygon points="172.19,68.88 172.19,103.32 137.75,103.32" fill="#6e86ec"/><rect x="172.19" y="68.88" width="34.44" height="34.44" fill="#2348e2"/><polygon points="172.19,68.88 206.63,68.88 172.19,103.32" fill="#ff3b6a"/><rect x="137.75" y="103.31" width="34.44" height="34.44" fill="#c7d0f8"/><polygon points="137.75,103.31 172.19,103.31 172.19,137.75" fill="#284ce3"/><rect x="172.19" y="103.31" width="34.44" height="34.44" fill="#899df0"/><polygon points="172.19,103.31 206.63,137.75 172.19,137.75" fill="#1f45e2"/><rect x="206.625" y="68.875" width="68.875" height="68.875" fill="#ffffff"/><rect x="206.63" y="68.88" width="34.44" height="34.44" fill="#b8c4f6"/><polygon points="241.07,68.88 241.07,103.32 206.63,103.32" fill="#a4b3f3"/><rect x="241.06" y="68.88" width="34.44" height="34.44" fill="#ff9cb4"/><polygon points="241.06,68.88 275.5,68.88 241.06,103.32" fill="#4f6de8"/><rect x="206.63" y="103.31" width="34.44" height="34.44" fill="#8ca0f0"/><polygon points="206.63,103.31 241.07,103.31 241.07,137.75" fill="#f5f7fe"/><rect x="241.06" y="103.31" width="34.44" height="34.44" fill="#ffb9c9"/><polygon points="241.06,103.31 275.5,137.75 241.06,137.75" fill="#ffe8ed"/><rect x="275.5" y="68.875" width="68.875" height="68.875" fill="#ffffff"/><rect x="275.5" y="68.88" width="34.44" height="34.44" fill="#dce2fa"/><path d="M 275.5 68.88 A 34.44 34.44 0 0 1 309.94 103.32 L 275.5 103.32" fill="#ff668a"/><rect x="309.94" y="68.88" width="34.44" height="34.44" fill="#ff8aa6"/><path d="M 309.94 103.32 A 34.44 34.44 0 0 1  344.38 68.88 L 344.38 103.32" fill="#ffb1c4"/><rect x="275.5" y="103.31" width="34.44" height="34.44" fill="#ffd6e0"/><path d="M 275.5 137.75 A 34.44 34.44 0 0 0 309.94 103.31 L 275.5 103.31" fill="#d0d8f9"/><rect x="309.94" y="103.31" width="34.44" height="34.44" fill="#e8ecfc"/><path d="M 309.94 103.31 A 34.44 34.44 0 0 0 344.38 137.75 L 344.38 103.31" fill="#6b84ec"/><rect x="344.38" y="68.88" width="68.88" height="68.88" fill="#2b4fe3"/><polygon points="344.38,68.88 413.26,68.88 344.38,137.76" fill="#ffbccc"/><rect x="413.25" y="68.875" width="68.875" height="68.875" fill="#ffffff"/><rect x="413.25" y="68.88" width="34.44" height="34.44" fill="#ffd9e2"/><path d="M 413.25 103.32 A 34.44 34.44 0 0 1 447.69 68.88 L 447.69 77.49 A 25.83 25.83 0 0 0 421.86 103.32" fill="#ff5a82"/><rect x="447.69" y="68.88" width="34.44" height="34.44" fill="#f5f7fe"/><path d="M 447.69 68.88 A 34.44 34.44 0 0 1 482.13 103.32 L 473.52 103.32 A 25.83 25.83 0 0 0 447.69 77.49" fill="#4f6de8"/><rect x="413.25" y="103.31" width="34.44" height="34.44" fill="#1c42e2"/><path d="M 413.25 103.31 A 34.44 34.44 0 0 0 447.69 137.75 L 447.69 129.14 A 25.83 25.83 0 0 1 421.86 103.31" fill="#e9edfc"/><rect x="447.69" y="103.31" width="34.44" height="34.44" fill="#607bea"/><path d="M 447.69 137.75 A 34.44 34.44 0 0 0 482.13 103.31 L 473.52 103.31 A 25.83 25.83 0 0 1 447.69 129.14" fill="#274be3"/><rect x="482.125" y="68.875" width="68.875" height="68.875" fill="#ffffff"/><rect x="482.13" y="68.88" width="34.44" height="34.44" fill="#ff97af"/><path d="M 482.13 68.88 A 34.44 34.44 0 0 0 516.5699999999999 103.32 L 516.5699999999999 68.88" fill="#1b41e1"/><rect x="516.56" y="68.88" width="34.44" height="34.44" fill="#9faff3"/><path d="M 516.56 103.32 A 34.44 34.44 0 0 0 551 68.88 L 516.56 68.88" fill="#4464e7"/><rect x="482.13" y="103.31" width="34.44" height="34.44" fill="#f9fafe"/><path d="M 482.13 137.75 A 34.44 34.44 0 0 1  516.5699999999999 103.31 L 516.5699999999999 137.75" fill="#4b69e8"/><rect x="516.56" y="103.31" width="34.44" height="34.44" fill="#ff6b8e"/><path d="M 516.56 103.31 A 34.44 34.44 0 0 1 551 137.75 L 516.56 137.75" fill="#ff91ab"/><rect x="551" y="68.875" width="68.875" height="68.875" fill="#ffffff"/><rect x="551" y="68.88" width="34.44" height="34.44" fill="#ff4773"/><path d="M 551 68.88 A 34.44 34.44 0 0 0 585.44 103.32 L 585.44 68.88" fill="#fff4f6"/><rect x="585.44" y="68.88" width="34.44" height="34.44" fill="#3e5fe6"/><path d="M 585.44 103.32 A 34.44 34.44 0 0 0 619.8800000000001 68.88 L 585.44 68.88" fill="#eaedfc"/><rect x="551" y="103.31" width="34.44" height="34.44" fill="#ffa8bd"/><path d="M 551 137.75 A 34.44 34.44 0 0 1  585.44 103.31 L 585.44 137.75" fill="#ffd9e2"/><rect x="585.44" y="103.31" width="34.44" height="34.44" fill="#ffeaef"/><path d="M 585.44 103.31 A 34.44 34.44 0 0 1 619.8800000000001 137.75 L 585.44 137.75" fill="#ff537c"/><rect x="619.875" y="68.875" width="68.875" height="68.875" fill="#ffffff"/><rect x="619.88" y="68.88" width="34.44" height="34.44" fill="#5e79ea"/><circle cx="637.1" cy="86.1" r="17.22" fill="#9eaef2"/><rect x="654.31" y="68.88" width="34.44" height="34.44" fill="#ff668a"/><rect x="654.31" y="68.88" width="34.44" height="34.44" fill="#ff4a75"/><rect x="619.88" y="103.31" width="34.44" height="34.44" fill="#ffd1dc"/><circle cx="637.1" cy="120.53" r="17.22" fill="#647eeb"/><rect x="654.31" y="103.31" width="34.44" height="34.44" fill="#f0f2fd"/><rect x="654.31" y="103.31" width="34.44" height="34.44" fill="#dbe1fa"/><rect x="688.75" y="68.875" width="68.875" height="68.875" fill="#ffffff"/><rect x="688.75" y="68.88" width="34.44" height="34.44" fill="#395be5"/><polygon points="723.19,68.88 723.19,103.32 688.75,103.32" fill="#7189ed"/><rect x="723.19" y="68.88" width="34.44" height="34.44" fill="#d2daf9"/><polygon points="723.19,68.88 757.6300000000001,103.32 723.19,103.32" fill="#7189ed"/><rect x="688.75" y="103.31" width="34.44" height="34.44" fill="#2046e2"/><polygon points="688.75,103.31 723.19,103.31 723.19,137.75" fill="#fff7f9"/><rect x="723.19" y="103.31" width="34.44" height="34.44" fill="#ff4773"/><polygon points="723.19,103.31 757.6300000000001,103.31 723.19,137.75" fill="#ffb3c5"/><rect x="757.625" y="68.875" width="68.875" height="68.875" fill="#ffffff"/><rect x="757.63" y="68.88" width="34.44" height="34.44" fill="#ff4874"/><path d="M 757.63 103.32 A 34.44 34.44 0 0 1 792.0699999999999 68.88 L 792.0699999999999 77.49 A 25.83 25.83 0 0 0 766.24 103.32" fill="#6781eb"/><rect x="792.06" y="68.88" width="34.44" height="34.44" fill="#ff3968"/><path d="M 792.06 68.88 A 34.44 34.44 0 0 1 826.5 103.32 L 817.89 103.32 A 25.83 25.83 0 0 0 792.06 77.49" fill="#f3f5fd"/><rect x="757.63" y="103.31" width="34.44" height="34.44" fill="#4a69e8"/><path d="M 757.63 103.31 A 34.44 34.44 0 0 0 792.0699999999999 137.75 L 792.0699999999999 129.14 A 25.83 25.83 0 0 1 766.24 103.31" fill="#2f52e4"/><rect x="792.06" y="103.31" width="34.44" height="34.44" fill="#4f6de8"/><path d="M 792.06 137.75 A 34.44 34.44 0 0 0 826.5 103.31 L 817.89 103.31 A 25.83 25.83 0 0 1 792.06 129.14" fill="#5c78ea"/><rect x="0" y="137.75" width="68.88" height="68.88" fill="#d5dcfa"/><rect x="0" y="137.75" width="68.88" height="68.88" fill="#fffdfe"/><rect x="68.88" y="137.75" width="68.88" height="68.88" fill="#bcc7f6"/><polygon points="68.88,137.75 137.76,137.75 137.76,206.63" fill="#2146e2"/><rect x="137.75" y="137.75" width="68.88" height="68.88" fill="#ff4672"/><rect x="137.75" y="137.75" width="68.88" height="68.88" fill="#264be3"/><rect x="206.625" y="137.75" width="68.875" height="68.875" fill="#ffffff"/><rect x="206.63" y="137.75" width="34.44" height="34.44" fill="#c3cdf7"/><path d="M 206.63 137.75 A 34.44 34.44 0 0 0 241.07 172.19 L 241.07 137.75" fill="#95a7f1"/><rect x="241.06" y="137.75" width="34.44" height="34.44" fill="#ff3767"/><path d="M 241.06 172.19 A 34.44 34.44 0 0 0 275.5 137.75 L 241.06 137.75" fill="#ff8da8"/><rect x="206.63" y="172.19" width="34.44" height="34.44" fill="#ffc7d4"/><path d="M 206.63 206.63 A 34.44 34.44 0 0 1  241.07 172.19 L 241.07 206.63" fill="#ffdbe4"/><rect x="241.06" y="172.19" width="34.44" height="34.44" fill="#e2e7fb"/><path d="M 241.06 172.19 A 34.44 34.44 0 0 1 275.5 206.63 L 241.06 206.63" fill="#ffd7e0"/><rect x="275.5" y="137.75" width="68.88" height="68.88" fill="#ffb6c7"/><path d="M 275.5 206.63 A 68.88 68.88 0 0 0 344.38 137.75 L 275.5 137.75" fill="#aab9f4"/><rect x="344.375" y="137.75" width="68.875" height="68.875" fill="#ffffff"/><rect x="344.38" y="137.75" width="34.44" height="34.44" fill="#c9d2f8"/><path d="M 344.38 172.19 A 34.44 34.44 0 0 1 378.82 137.75 L 378.82 146.36 A 25.83 25.83 0 0 0 352.99 172.19" fill="#ffbfce"/><rect x="378.81" y="137.75" width="34.44" height="34.44" fill="#ffcad7"/><path d="M 378.81 137.75 A 34.44 34.44 0 0 1 413.25 172.19 L 404.64 172.19 A 25.83 25.83 0 0 0 378.81 146.36" fill="#f8f9fe"/><rect x="344.38" y="172.19" width="34.44" height="34.44" fill="#ff85a2"/><path d="M 344.38 172.19 A 34.44 34.44 0 0 0 378.82 206.63 L 378.82 198.01999999999998 A 25.83 25.83 0 0 1 352.99 172.19" fill="#ff4571"/><rect x="378.81" y="172.19" width="34.44" height="34.44" fill="#647eeb"/><path d="M 378.81 206.63 A 34.44 34.44 0 0 0 413.25 172.19 L 404.64 172.19 A 25.83 25.83 0 0 1 378.81 198.01999999999998" fill="#95a7f1"/><rect x="413.25" y="137.75" width="68.875" height="68.875" fill="#ffffff"/><rect x="413.25" y="137.75" width="34.44" height="34.44" fill="#ffcad6"/><polygon points="447.69,137.75 447.69,172.19 413.25,172.19" fill="#ff4874"/><rect x="447.69" y="137.75" width="34.44" height="34.44" fill="#7b91ee"/><polygon points="447.69,137.75 482.13,137.75 447.69,172.19" fill="#2a4ee3"/><rect x="413.25" y="172.19" width="34.44" height="34.44" fill="#ffd5df"/><polygon points="413.25,172.19 447.69,172.19 447.69,206.63" fill="#ffd3de"/><rect x="447.69" y="172.19" width="34.44" height="34.44" fill="#fcfcff"/><polygon points="447.69,172.19 482.13,206.63 447.69,206.63" fill="#ff7999"/><rect x="482.125" y="137.75" width="68.875" height="68.875" fill="#ffffff"/><rect x="482.13" y="137.75" width="34.44" height="34.44" fill="#cbd4f8"/><polygon points="516.5699999999999,137.75 516.5699999999999,172.19 482.13,172.19" fill="#7990ee"/><rect x="516.56" y="137.75" width="34.44" height="34.44" fill="#ffb9ca"/><polygon points="516.56,137.75 551,137.75 516.56,172.19" fill="#7e94ee"/><rect x="482.13" y="172.19" width="34.44" height="34.44" fill="#788fee"/><polygon points="482.13,172.19 516.5699999999999,172.19 516.5699999999999,206.63" fill="#ff3a69"/><rect x="516.56" y="172.19" width="34.44" height="34.44" fill="#fff9fb"/><polygon points="516.56,172.19 551,206.63 516.56,206.63" fill="#ff3d6b"/><rect x="551" y="137.75" width="68.875" height="68.875" fill="#ffffff"/><rect x="551" y="137.75" width="34.44" height="34.44" fill="#ff94ae"/><path d="M 551 172.19 A 34.44 34.44 0 0 1 585.44 137.75 L 585.44 146.36 A 25.83 25.83 0 0 0 559.61 172.19" fill="#778eed"/><rect x="585.44" y="137.75" width="34.44" height="34.44" fill="#fafbfe"/><path d="M 585.44 137.75 A 34.44 34.44 0 0 1 619.8800000000001 172.19 L 611.2700000000001 172.19 A 25.83 25.83 0 0 0 585.44 146.36" fill="#ff7596"/><rect x="551" y="172.19" width="34.44" height="34.44" fill="#ff6287"/><path d="M 551 172.19 A 34.44 34.44 0 0 0 585.44 206.63 L 585.44 198.01999999999998 A 25.83 25.83 0 0 1 559.61 172.19" fill="#ff3f6c"/><rect x="585.44" y="172.19" width="34.44" height="34.44" fill="#ff90ab"/><path d="M 585.44 206.63 A 34.44 34.44 0 0 0 619.8800000000001 172.19 L 611.2700000000001 172.19 A 25.83 25.83 0 0 1 585.44 198.01999999999998" fill="#f4f6fe"/><rect x="619.88" y="137.75" width="68.88" height="68.88" fill="#ff9bb3"/><rect x="619.88" y="137.75" width="68.88" height="68.88" fill="#ff4d77"/><rect x="688.75" y="137.75" width="68.875" height="68.875" fill="#ffffff"/><rect x="688.75" y="137.75" width="34.44" height="34.44" fill="#fffcfc"/><path d="M 688.75 172.19 A 34.44 34.44 0 0 1 723.19 137.75 L 723.19 146.36 A 25.83 25.83 0 0 0 697.36 172.19" fill="#395ae5"/><rect x="723.19" y="137.75" width="34.44" height="34.44" fill="#ff4873"/><path d="M 723.19 137.75 A 34.44 34.44 0 0 1 757.6300000000001 172.19 L 749.0200000000001 172.19 A 25.83 25.83 0 0 0 723.19 146.36" fill="#ff83a0"/><rect x="688.75" y="172.19" width="34.44" height="34.44" fill="#cfd7f9"/><path d="M 688.75 172.19 A 34.44 34.44 0 0 0 723.19 206.63 L 723.19 198.01999999999998 A 25.83 25.83 0 0 1 697.36 172.19" fill="#274be3"/><rect x="723.19" y="172.19" width="34.44" height="34.44" fill="#ffe9ee"/><path d="M 723.19 206.63 A 34.44 34.44 0 0 0 757.6300000000001 172.19 L 749.0200000000001 172.19 A 25.83 25.83 0 0 1 723.19 198.01999999999998" fill="#5b77ea"/><rect x="757.63" y="137.75" width="68.88" height="68.88" fill="#f3f5fd"/><rect x="757.63" y="137.75" width="68.88" height="68.88" fill="#ff5980"/><rect x="0" y="206.625" width="68.875" height="68.875" fill="#ffffff"/><rect x="0" y="206.63" width="34.44" height="34.44" fill="#ff6086"/><path d="M 0 206.63 A 34.44 34.44 0 0 1 34.44 241.07 L 0 241.07" fill="#6680eb"/><rect x="34.44" y="206.63" width="34.44" height="34.44" fill="#284ce3"/><path d="M 34.44 241.07 A 34.44 34.44 0 0 1  68.88 206.63 L 68.88 241.07" fill="#ffa7bc"/><rect x="0" y="241.06" width="34.44" height="34.44" fill="#889cf0"/><path d="M 0 275.5 A 34.44 34.44 0 0 0 34.44 241.06 L 0 241.06" fill="#ffa5ba"/><rect x="34.44" y="241.06" width="34.44" height="34.44" fill="#e7ebfc"/><path d="M 34.44 241.06 A 34.44 34.44 0 0 0 68.88 275.5 L 68.88 241.06" fill="#ffa4ba"/><rect x="68.875" y="206.625" width="68.875" height="68.875" fill="#ffffff"/><rect x="68.88" y="206.63" width="34.44" height="34.44" fill="#ff7495"/><polygon points="103.32,206.63 103.32,241.07 68.88,241.07" fill="#ff6589"/><rect x="103.31" y="206.63" width="34.44" height="34.44" fill="#3a5be5"/><polygon points="103.31,206.63 137.75,241.07 103.31,241.07" fill="#ff7a9a"/><rect x="68.88" y="241.06" width="34.44" height="34.44" fill="#ffecf1"/><polygon points="68.88,241.06 103.32,241.06 103.32,275.5" fill="#f9fafe"/><rect x="103.31" y="241.06" width="34.44" height="34.44" fill="#ffd7e0"/><polygon points="103.31,241.06 137.75,241.06 103.31,275.5" fill="#a5b4f3"/><rect x="137.75" y="206.63" width="68.88" height="68.88" fill="#ff85a2"/><path d="M 137.75 206.63 A 68.88 68.88 0 0 0 206.63 275.51 L 206.63 206.63" fill="#ff7495"/><rect x="206.625" y="206.625" width="68.875" height="68.875" fill="#ffffff"/><rect x="206.63" y="206.63" width="34.44" height="34.44" fill="#c1ccf7"/><path d="M 206.63 206.63 A 34.44 34.44 0 0 1 241.07 241.07 L 206.63 241.07" fill="#ffe4ea"/><rect x="241.06" y="206.63" width="34.44" height="34.44" fill="#ff86a3"/><path d="M 241.06 241.07 A 34.44 34.44 0 0 1  275.5 206.63 L 275.5 241.07" fill="#b0bdf5"/><rect x="206.63" y="241.06" width="34.44" height="34.44" fill="#5874e9"/><path d="M 206.63 275.5 A 34.44 34.44 0 0 0 241.07 241.06 L 206.63 241.06" fill="#ff668a"/><rect x="241.06" y="241.06" width="34.44" height="34.44" fill="#ffd1dc"/><path d="M 241.06 241.06 A 34.44 34.44 0 0 0 275.5 275.5 L 275.5 241.06" fill="#f5f7fe"/><rect x="275.5" y="206.63" width="68.88" height="68.88" fill="#ffedf1"/><polygon points="344.38,206.63 344.38,275.51 275.5,275.51" fill="#ff5a81"/><rect x="344.38" y="206.63" width="68.88" height="68.88" fill="#f6f7fe"/><polygon points="344.38,206.63 413.26,206.63 413.26,275.51" fill="#ffbdcd"/><rect x="413.25" y="206.63" width="68.88" height="68.88" fill="#ffb8c9"/><rect x="413.25" y="206.63" width="68.88" height="68.88" fill="#4c6be8"/><rect x="482.125" y="206.625" width="68.875" height="68.875" fill="#ffffff"/><rect x="482.13" y="206.63" width="34.44" height="34.44" fill="#ff9db4"/><polygon points="516.5699999999999,206.63 516.5699999999999,241.07 482.13,241.07" fill="#cad3f8"/><rect x="516.56" y="206.63" width="34.44" height="34.44" fill="#ff6f91"/><polygon points="516.56,206.63 551,241.07 516.56,241.07" fill="#5773e9"/><rect x="482.13" y="241.06" width="34.44" height="34.44" fill="#ffb2c5"/><polygon points="482.13,241.06 516.5699999999999,241.06 516.5699999999999,275.5" fill="#ffacc0"/><rect x="516.56" y="241.06" width="34.44" height="34.44" fill="#4b69e8"/><polygon points="516.56,241.06 551,241.06 516.56,275.5" fill="#fffdfd"/><rect x="551" y="206.63" width="68.88" height="68.88" fill="#ffe7ed"/><polygon points="619.88,206.63 619.88,275.51 551,275.51" fill="#ffadc1"/><rect x="619.88" y="206.63" width="68.88" height="68.88" fill="#cfd7f9"/><path d="M 619.88 275.51 A 68.88 68.88 0 0 0 688.76 206.63 L 619.88 206.63" fill="#eff2fd"/><rect x="688.75" y="206.625" width="68.875" height="68.875" fill="#ffffff"/><rect x="688.75" y="206.63" width="34.44" height="34.44" fill="#395be5"/><polygon points="723.19,206.63 723.19,241.07 688.75,241.07" fill="#3456e5"/><rect x="723.19" y="206.63" width="34.44" height="34.44" fill="#ff8aa6"/><polygon points="723.19,206.63 757.6300000000001,241.07 723.19,241.07" fill="#cad3f8"/><rect x="688.75" y="241.06" width="34.44" height="34.44" fill="#1940e1"/><polygon points="688.75,241.06 723.19,241.06 688.75,275.5" fill="#c1cbf7"/><rect x="723.19" y="241.06" width="34.44" height="34.44" fill="#ffedf1"/><polygon points="723.19,241.06 757.6300000000001,241.06 757.6300000000001,275.5" fill="#3456e5"/><rect x="757.625" y="206.625" width="68.875" height="68.875" fill="#ffffff"/><rect x="757.63" y="206.63" width="34.44" height="34.44" fill="#ffacc0"/><path d="M 757.63 241.07 A 34.44 34.44 0 0 0 792.0699999999999 206.63 L 757.63 206.63" fill="#e9edfc"/><rect x="792.06" y="206.63" width="34.44" height="34.44" fill="#f9fafe"/><path d="M 792.06 206.63 A 34.44 34.44 0 0 0 826.5 241.07 L 826.5 206.63" fill="#ff9bb3"/><rect x="757.63" y="241.06" width="34.44" height="34.44" fill="#2b4fe3"/><path d="M 757.63 241.06 A 34.44 34.44 0 0 1 792.0699999999999 275.5 L 757.63 275.5" fill="#7a90ee"/><rect x="792.06" y="241.06" width="34.44" height="34.44" fill="#eaeefc"/><path d="M 792.06 275.5 A 34.44 34.44 0 0 1  826.5 241.06 L 826.5 275.5" fill="#ff90aa"/><rect x="0" y="275.5" width="68.875" height="68.875" fill="#ffffff"/><rect x="0" y="275.5" width="34.44" height="34.44" fill="#dfe5fb"/><polygon points="34.44,275.5 34.44,309.94 0,309.94" fill="#ff7092"/><rect x="34.44" y="275.5" width="34.44" height="34.44" fill="#94a6f1"/><polygon points="34.44,275.5 68.88,309.94 34.44,309.94" fill="#7b91ee"/><rect x="0" y="309.94" width="34.44" height="34.44" fill="#ff92ac"/><polygon points="0,309.94 34.44,309.94 34.44,344.38" fill="#ffc9d6"/><rect x="34.44" y="309.94" width="34.44" height="34.44" fill="#627deb"/><polygon points="34.44,309.94 68.88,309.94 34.44,344.38" fill="#ff4b76"/><rect x="68.875" y="275.5" width="68.875" height="68.875" fill="#ffffff"/><rect x="68.88" y="275.5" width="34.44" height="34.44" fill="#ff6086"/><path d="M 68.88 309.94 A 34.44 34.44 0 0 0 103.32 275.5 L 68.88 275.5" fill="#ff557d"/><rect x="103.31" y="275.5" width="34.44" height="34.44" fill="#fafbfe"/><path d="M 103.31 275.5 A 34.44 34.44 0 0 0 137.75 309.94 L 137.75 275.5" fill="#5672e9"/><rect x="68.88" y="309.94" width="34.44" height="34.44" fill="#ff7092"/><path d="M 68.88 309.94 A 34.44 34.44 0 0 1 103.32 344.38 L 68.88 344.38" fill="#ff87a3"/><rect x="103.31" y="309.94" width="34.44" height="34.44" fill="#4464e7"/><path d="M 103.31 344.38 A 34.44 34.44 0 0 1  137.75 309.94 L 137.75 344.38" fill="#4060e6"/><rect x="137.75" y="275.5" width="68.88" height="68.88" fill="#ffdee6"/><polygon points="206.63,275.5 206.63,344.38 137.75,344.38" fill="#c1cbf7"/><rect x="206.625" y="275.5" width="68.875" height="68.875" fill="#ffffff"/><rect x="206.63" y="275.5" width="34.44" height="34.44" fill="#5774e9"/><polygon points="241.07,275.5 241.07,309.94 206.63,309.94" fill="#7b92ee"/><rect x="241.06" y="275.5" width="34.44" height="34.44" fill="#ffc5d3"/><polygon points="241.06,275.5 275.5,275.5 241.06,309.94" fill="#264be3"/><rect x="206.63" y="309.94" width="34.44" height="34.44" fill="#ff98b0"/><polygon points="206.63,309.94 241.07,309.94 241.07,344.38" fill="#fff7f9"/><rect x="241.06" y="309.94" width="34.44" height="34.44" fill="#294de3"/><polygon points="241.06,309.94 275.5,344.38 241.06,344.38" fill="#5c77ea"/><rect x="275.5" y="275.5" width="68.88" height="68.88" fill="#e2e7fb"/><path d="M 275.5 275.5 A 68.88 68.88 0 0 1 344.38 344.38 L 275.5 344.38" fill="#ff527b"/><rect x="344.38" y="275.5" width="68.88" height="68.88" fill="#ffa3b9"/><polygon points="413.26,275.5 413.26,344.38 344.38,344.38" fill="#ff92ac"/><rect x="413.25" y="275.5" width="68.88" height="68.88" fill="#607bea"/><path d="M 413.25 344.38 A 68.88 68.88 0 0 1  482.13 275.5 L 413.25 344.38 A 68.88 68.88 0 0 0 482.13 275.5" fill="#d1d9f9"/><rect x="482.125" y="275.5" width="68.875" height="68.875" fill="#ffffff"/><rect x="482.13" y="275.5" width="34.44" height="34.44" fill="#ff90ab"/><polygon points="516.5699999999999,275.5 516.5699999999999,309.94 482.13,309.94" fill="#7e93ee"/><rect x="516.56" y="275.5" width="34.44" height="34.44" fill="#ffa0b7"/><polygon points="516.56,275.5 551,309.94 516.56,309.94" fill="#ff86a3"/><rect x="482.13" y="309.94" width="34.44" height="34.44" fill="#ff4471"/><polygon points="482.13,309.94 516.5699999999999,309.94 482.13,344.38" fill="#e8ebfc"/><rect x="516.56" y="309.94" width="34.44" height="34.44" fill="#f6f8fe"/><polygon points="516.56,309.94 551,309.94 551,344.38" fill="#ff8da8"/><rect x="551" y="275.5" width="68.88" height="68.88" fill="#5d78ea"/><path d="M 551 344.38 A 68.88 68.88 0 0 1  619.88 275.5 L 619.88 344.38" fill="#2348e2"/><rect x="619.88" y="275.5" width="68.88" height="68.88" fill="#ffc4d2"/><path d="M 619.88 344.38 A 68.88 68.88 0 0 0 688.76 275.5 L 619.88 275.5" fill="#ff94ae"/><rect x="688.75" y="275.5" width="68.88" height="68.88" fill="#cbd4f8"/><rect x="688.75" y="275.5" width="68.88" height="68.88" fill="#607bea"/><rect x="757.63" y="275.5" width="68.88" height="68.88" fill="#bec9f7"/><polygon points="757.63,275.5 826.51,344.38 757.63,344.38" fill="#1d43e2"/><rect x="0" y="344.375" width="68.875" height="68.875" fill="#ffffff"/><rect x="0" y="344.38" width="34.44" height="34.44" fill="#ff3767"/><path d="M 0 378.82 A 34.44 34.44 0 0 0 34.44 344.38 L 0 344.38" fill="#fff0f4"/><rect x="34.44" y="344.38" width="34.44" height="34.44" fill="#ffd1dc"/><path d="M 34.44 344.38 A 34.44 34.44 0 0 0 68.88 378.82 L 68.88 344.38" fill="#ffdee6"/><rect x="0" y="378.81" width="34.44" height="34.44" fill="#4262e6"/><path d="M 0 378.81 A 34.44 34.44 0 0 1 34.44 413.25 L 0 413.25" fill="#dce2fa"/><rect x="34.44" y="378.81" width="34.44" height="34.44" fill="#4060e6"/><path d="M 34.44 413.25 A 34.44 34.44 0 0 1  68.88 378.81 L 68.88 413.25" fill="#5c77ea"/><rect x="68.88" y="344.38" width="68.88" height="68.88" fill="#ff577f"/><path d="M 68.88 344.38 A 68.88 68.88 0 0 0 137.76 413.26 L 137.76 344.38" fill="#eff2fd"/><rect x="137.75" y="344.38" width="68.88" height="68.88" fill="#f2f4fd"/><polygon points="137.75,344.38 206.63,413.26 137.75,413.26" fill="#3456e5"/><rect x="206.625" y="344.375" width="68.875" height="68.875" fill="#ffffff"/><rect x="206.63" y="344.38" width="34.44" height="34.44" fill="#ffa1b7"/><path d="M 206.63 344.38 A 34.44 34.44 0 0 0 241.07 378.82 L 241.07 344.38" fill="#fff3f5"/><rect x="241.06" y="344.38" width="34.44" height="34.44" fill="#c9d2f8"/><path d="M 241.06 378.82 A 34.44 34.44 0 0 0 275.5 344.38 L 241.06 344.38" fill="#b4c1f5"/><rect x="206.63" y="378.81" width="34.44" height="34.44" fill="#ffe1e8"/><path d="M 206.63 413.25 A 34.44 34.44 0 0 1  241.07 378.81 L 241.07 413.25" fill="#b4c1f5"/><rect x="241.06" y="378.81" width="34.44" height="34.44" fill="#ff3f6d"/><path d="M 241.06 378.81 A 34.44 34.44 0 0 1 275.5 413.25 L 241.06 413.25" fill="#c8d1f8"/><rect x="275.5" y="344.375" width="68.875" height="68.875" fill="#ffffff"/><rect x="275.5" y="344.38" width="34.44" height="34.44" fill="#5672e9"/><circle cx="292.72" cy="361.6" r="17.22" fill="#ff9ab2"/><rect x="309.94" y="344.38" width="34.44" height="34.44" fill="#fefeff"/><rect x="309.94" y="344.38" width="34.44" height="34.44" fill="#6982ec"/><rect x="275.5" y="378.81" width="34.44" height="34.44" fill="#ff5b82"/><circle cx="292.72" cy="396.03" r="17.22" fill="#fff2f5"/><rect x="309.94" y="378.81" width="34.44" height="34.44" fill="#ffe4ea"/><rect x="309.94" y="378.81" width="34.44" height="34.44" fill="#3f5fe6"/><rect x="344.375" y="344.375" width="68.875" height="68.875" fill="#ffffff"/><rect x="344.38" y="344.38" width="34.44" height="34.44" fill="#ffb4c6"/><path d="M 344.38 344.38 A 34.44 34.44 0 0 0 378.82 378.82 L 378.82 344.38" fill="#ff8faa"/><rect x="378.81" y="344.38" width="34.44" height="34.44" fill="#fff4f7"/><path d="M 378.81 378.82 A 34.44 34.44 0 0 0 413.25 344.38 L 378.81 344.38" fill="#ff4672"/><rect x="344.38" y="378.81" width="34.44" height="34.44" fill="#a8b7f4"/><path d="M 344.38 413.25 A 34.44 34.44 0 0 1  378.82 378.81 L 378.82 413.25" fill="#ffb5c7"/><rect x="378.81" y="378.81" width="34.44" height="34.44" fill="#ff9db4"/><path d="M 378.81 378.81 A 34.44 34.44 0 0 1 413.25 413.25 L 378.81 413.25" fill="#647eeb"/><rect x="413.25" y="344.375" width="68.875" height="68.875" fill="#ffffff"/><rect x="413.25" y="344.38" width="34.44" height="34.44" fill="#ff3766"/><circle cx="430.47" cy="361.6" r="17.22" fill="#cad3f8"/><rect x="447.69" y="344.38" width="34.44" height="34.44" fill="#ff6a8d"/><rect x="447.69" y="344.38" width="34.44" height="34.44" fill="#b4c1f5"/><rect x="413.25" y="378.81" width="34.44" height="34.44" fill="#e2e7fb"/><circle cx="430.47" cy="396.03" r="17.22" fill="#ced6f9"/><rect x="447.69" y="378.81" width="34.44" height="34.44" fill="#ffc8d5"/><rect x="447.69" y="378.81" width="34.44" height="34.44" fill="#6680eb"/><rect x="482.125" y="344.375" width="68.875" height="68.875" fill="#ffffff"/><rect x="482.13" y="344.38" width="34.44" height="34.44" fill="#4e6ce8"/><circle cx="499.35" cy="361.6" r="17.22" fill="#ffd3dd"/><rect x="516.56" y="344.38" width="34.44" height="34.44" fill="#738bed"/><rect x="516.56" y="344.38" width="34.44" height="34.44" fill="#3356e5"/><rect x="482.13" y="378.81" width="34.44" height="34.44" fill="#d8defa"/><circle cx="499.35" cy="396.03" r="17.22" fill="#ff95ae"/><rect x="516.56" y="378.81" width="34.44" height="34.44" fill="#ff3666"/><rect x="516.56" y="378.81" width="34.44" height="34.44" fill="#ff7293"/><rect x="551" y="344.375" width="68.875" height="68.875" fill="#ffffff"/><rect x="551" y="344.38" width="34.44" height="34.44" fill="#ff7f9d"/><path d="M 551 344.38 A 34.44 34.44 0 0 1 585.44 378.82 L 551 378.82" fill="#ffc9d6"/><rect x="585.44" y="344.38" width="34.44" height="34.44" fill="#dce2fa"/><path d="M 585.44 378.82 A 34.44 34.44 0 0 1  619.8800000000001 344.38 L 619.8800000000001 378.82" fill="#5774e9"/><rect x="551" y="378.81" width="34.44" height="34.44" fill="#3053e4"/><path d="M 551 413.25 A 34.44 34.44 0 0 0 585.44 378.81 L 551 378.81" fill="#ff8ea9"/><rect x="585.44" y="378.81" width="34.44" height="34.44" fill="#ff99b1"/><path d="M 585.44 378.81 A 34.44 34.44 0 0 0 619.8800000000001 413.25 L 619.8800000000001 378.81" fill="#274ce3"/><rect x="619.875" y="344.375" width="68.875" height="68.875" fill="#ffffff"/><rect x="619.88" y="344.38" width="34.44" height="34.44" fill="#ff9db5"/><polygon points="654.3199999999999,344.38 654.3199999999999,378.82 619.88,378.82" fill="#ff416e"/><rect x="654.31" y="344.38" width="34.44" height="34.44" fill="#96a8f1"/><polygon points="654.31,344.38 688.75,344.38 654.31,378.82" fill="#b6c3f6"/><rect x="619.88" y="378.81" width="34.44" height="34.44" fill="#859aef"/><polygon points="619.88,378.81 654.3199999999999,378.81 654.3199999999999,413.25" fill="#ff91ab"/><rect x="654.31" y="378.81" width="34.44" height="34.44" fill="#ffb4c6"/><polygon points="654.31,378.81 688.75,413.25 654.31,413.25" fill="#ff7596"/><rect x="688.75" y="344.375" width="68.875" height="68.875" fill="#ffffff"/><rect x="688.75" y="344.38" width="34.44" height="34.44" fill="#abb9f4"/><path d="M 688.75 344.38 A 34.44 34.44 0 0 1 723.19 378.82 L 688.75 378.82" fill="#d6ddfa"/><rect x="723.19" y="344.38" width="34.44" height="34.44" fill="#ff436f"/><path d="M 723.19 378.82 A 34.44 34.44 0 0 1  757.6300000000001 344.38 L 757.6300000000001 378.82" fill="#ff3a69"/><rect x="688.75" y="378.81" width="34.44" height="34.44" fill="#b4c1f5"/><path d="M 688.75 413.25 A 34.44 34.44 0 0 0 723.19 378.81 L 688.75 378.81" fill="#ff4f79"/><rect x="723.19" y="378.81" width="34.44" height="34.44" fill="#ff3c6a"/><path d="M 723.19 378.81 A 34.44 34.44 0 0 0 757.6300000000001 413.25 L 757.6300000000001 378.81" fill="#a5b4f3"/><rect x="757.625" y="344.375" width="68.875" height="68.875" fill="#ffffff"/><rect x="757.63" y="344.38" width="34.44" height="34.44" fill="#ff5c83"/><path d="M 757.63 378.82 A 34.44 34.44 0 0 0 792.0699999999999 344.38 L 757.63 344.38" fill="#ffe4eb"/><rect x="792.06" y="344.38" width="34.44" height="34.44" fill="#fffdfe"/><path d="M 792.06 344.38 A 34.44 34.44 0 0 0 826.5 378.82 L 826.5 344.38" fill="#7189ed"/><rect x="757.63" y="378.81" width="34.44" height="34.44" fill="#c9d2f8"/><path d="M 757.63 378.81 A 34.44 34.44 0 0 1 792.0699999999999 413.25 L 757.63 413.25" fill="#dae0fa"/><rect x="792.06" y="378.81" width="34.44" height="34.44" fill="#d2daf9"/><path d="M 792.06 413.25 A 34.44 34.44 0 0 1  826.5 378.81 L 826.5 413.25" fill="#ffd1dc"/><rect x="0" y="413.25" width="68.88" height="68.88" fill="#1d43e2"/><rect x="0" y="413.25" width="68.88" height="68.88" fill="#284ce3"/><rect x="68.875" y="413.25" width="68.875" height="68.875" fill="#ffffff"/><rect x="68.88" y="413.25" width="34.44" height="34.44" fill="#7e94ee"/><path d="M 68.88 447.69 A 34.44 34.44 0 0 1  103.32 413.25 L 103.32 447.69" fill="#ffceda"/><rect x="103.31" y="413.25" width="34.44" height="34.44" fill="#7a91ee"/><path d="M 103.31 413.25 A 34.44 34.44 0 0 1 137.75 447.69 L 103.31 447.69" fill="#ff537c"/><rect x="68.88" y="447.69" width="34.44" height="34.44" fill="#5b77ea"/><path d="M 68.88 447.69 A 34.44 34.44 0 0 0 103.32 482.13 L 103.32 447.69" fill="#ffc9d6"/><rect x="103.31" y="447.69" width="34.44" height="34.44" fill="#ff9eb5"/><path d="M 103.31 482.13 A 34.44 34.44 0 0 0 137.75 447.69 L 103.31 447.69" fill="#ff7696"/><rect x="137.75" y="413.25" width="68.875" height="68.875" fill="#ffffff"/><rect x="137.75" y="413.25" width="34.44" height="34.44" fill="#f4f6fe"/><polygon points="172.19,413.25 172.19,447.69 137.75,447.69" fill="#ffa3b9"/><rect x="172.19" y="413.25" width="34.44" height="34.44" fill="#fff0f3"/><polygon points="172.19,413.25 206.63,447.69 172.19,447.69" fill="#4463e7"/><rect x="137.75" y="447.69" width="34.44" height="34.44" fill="#dbe1fa"/><polygon points="137.75,447.69 172.19,447.69 172.19,482.13" fill="#ccd4f8"/><rect x="172.19" y="447.69" width="34.44" height="34.44" fill="#fffbfc"/><polygon points="172.19,447.69 206.63,447.69 172.19,482.13" fill="#ccd5f8"/><rect x="206.625" y="413.25" width="68.875" height="68.875" fill="#ffffff"/><rect x="206.63" y="413.25" width="34.44" height="34.44" fill="#f4f6fe"/><path d="M 206.63 447.69 A 34.44 34.44 0 0 0 241.07 413.25 L 206.63 413.25" fill="#e8ecfc"/><rect x="241.06" y="413.25" width="34.44" height="34.44" fill="#ffbacb"/><path d="M 241.06 413.25 A 34.44 34.44 0 0 0 275.5 447.69 L 275.5 413.25" fill="#8ca0f0"/><rect x="206.63" y="447.69" width="34.44" height="34.44" fill="#ff6388"/><path d="M 206.63 447.69 A 34.44 34.44 0 0 1 241.07 482.13 L 206.63 482.13" fill="#ffc5d3"/><rect x="241.06" y="447.69" width="34.44" height="34.44" fill="#6680eb"/><path d="M 241.06 482.13 A 34.44 34.44 0 0 1  275.5 447.69 L 275.5 482.13" fill="#ff577f"/><rect x="275.5" y="413.25" width="68.88" height="68.88" fill="#ff6287"/><path d="M 275.5 413.25 A 68.88 68.88 0 0 1  344.38 482.13 L 275.5 413.25 A 68.88 68.88 0 0 0 344.38 482.13" fill="#9aabf2"/><rect x="344.375" y="413.25" width="68.875" height="68.875" fill="#ffffff"/><rect x="344.38" y="413.25" width="34.44" height="34.44" fill="#ff7a9a"/><path d="M 344.38 447.69 A 34.44 34.44 0 0 1  378.82 413.25 L 378.82 447.69" fill="#abb9f4"/><rect x="378.81" y="413.25" width="34.44" height="34.44" fill="#4262e6"/><path d="M 378.81 413.25 A 34.44 34.44 0 0 1 413.25 447.69 L 378.81 447.69" fill="#ffb0c3"/><rect x="344.38" y="447.69" width="34.44" height="34.44" fill="#ff7092"/><path d="M 344.38 447.69 A 34.44 34.44 0 0 0 378.82 482.13 L 378.82 447.69" fill="#ff4672"/><rect x="378.81" y="447.69" width="34.44" height="34.44" fill="#3b5ce6"/><path d="M 378.81 482.13 A 34.44 34.44 0 0 0 413.25 447.69 L 378.81 447.69" fill="#ffc9d6"/><rect x="413.25" y="413.25" width="68.88" height="68.88" fill="#ff829f"/><rect x="413.25" y="413.25" width="68.88" height="68.88" fill="#ff3e6c"/><rect x="482.13" y="413.25" width="68.88" height="68.88" fill="#ffc5d3"/><path d="M 482.13 482.13 A 68.88 68.88 0 0 0 551.01 413.25 L 482.13 413.25" fill="#4b69e8"/><rect x="551" y="413.25" width="68.875" height="68.875" fill="#ffffff"/><rect x="551" y="413.25" width="34.44" height="34.44" fill="#ff94ae"/><path d="M 551 447.69 A 34.44 34.44 0 0 0 585.44 413.25 L 551 413.25" fill="#5c77ea"/><rect x="585.44" y="413.25" width="34.44" height="34.44" fill="#ff6388"/><path d="M 585.44 413.25 A 34.44 34.44 0 0 0 619.8800000000001 447.69 L 619.8800000000001 413.25" fill="#ffdce5"/><rect x="551" y="447.69" width="34.44" height="34.44" fill="#ffacc0"/><path d="M 551 447.69 A 34.44 34.44 0 0 1 585.44 482.13 L 551 482.13" fill="#788fed"/><rect x="585.44" y="447.69" width="34.44" height="34.44" fill="#b0bdf5"/><path d="M 585.44 482.13 A 34.44 34.44 0 0 1  619.8800000000001 447.69 L 619.8800000000001 482.13" fill="#3a5ce5"/><rect x="619.88" y="413.25" width="68.88" height="68.88" fill="#ff9bb3"/><path d="M 619.88 413.25 A 68.88 68.88 0 0 1 688.76 482.13 L 619.88 482.13" fill="#4d6be8"/><rect x="688.75" y="413.25" width="68.875" height="68.875" fill="#ffffff"/><rect x="688.75" y="413.25" width="34.44" height="34.44" fill="#4666e7"/><path d="M 688.75 413.25 A 34.44 34.44 0 0 1 723.19 447.69 L 688.75 447.69" fill="#ffc2d0"/><rect x="723.19" y="413.25" width="34.44" height="34.44" fill="#ffa9be"/><path d="M 723.19 447.69 A 34.44 34.44 0 0 1  757.6300000000001 413.25 L 757.6300000000001 447.69" fill="#2d50e4"/><rect x="688.75" y="447.69" width="34.44" height="34.44" fill="#ff547d"/><path d="M 688.75 482.13 A 34.44 34.44 0 0 0 723.19 447.69 L 688.75 447.69" fill="#9cadf2"/><rect x="723.19" y="447.69" width="34.44" height="34.44" fill="#ff3a68"/><path d="M 723.19 447.69 A 34.44 34.44 0 0 0 757.6300000000001 482.13 L 757.6300000000001 447.69" fill="#516ee8"/><rect x="757.625" y="413.25" width="68.875" height="68.875" fill="#ffffff"/><rect x="757.63" y="413.25" width="34.44" height="34.44" fill="#ffb4c6"/><path d="M 757.63 447.69 A 34.44 34.44 0 0 0 792.0699999999999 413.25 L 757.63 413.25" fill="#ff809e"/><rect x="792.06" y="413.25" width="34.44" height="34.44" fill="#7189ed"/><path d="M 792.06 413.25 A 34.44 34.44 0 0 0 826.5 447.69 L 826.5 413.25" fill="#ff9db4"/><rect x="757.63" y="447.69" width="34.44" height="34.44" fill="#fefeff"/><path d="M 757.63 447.69 A 34.44 34.44 0 0 1 792.0699999999999 482.13 L 757.63 482.13" fill="#4a68e7"/><rect x="792.06" y="447.69" width="34.44" height="34.44" fill="#7990ee"/><path d="M 792.06 482.13 A 34.44 34.44 0 0 1  826.5 447.69 L 826.5 482.13" fill="#d8dffa"/><rect x="0" y="482.125" width="68.875" height="68.875" fill="#ffffff"/><rect x="0" y="482.13" width="34.44" height="34.44" fill="#ffb1c4"/><path d="M 0 516.5699999999999 A 34.44 34.44 0 0 1 34.44 482.13 L 34.44 490.74 A 25.83 25.83 0 0 0 8.61 516.5699999999999" fill="#9faff3"/><rect x="34.44" y="482.13" width="34.44" height="34.44" fill="#f4f6fe"/><path d="M 34.44 482.13 A 34.44 34.44 0 0 1 68.88 516.5699999999999 L 60.269999999999996 516.5699999999999 A 25.83 25.83 0 0 0 34.44 490.74" fill="#2b4fe4"/><rect x="0" y="516.56" width="34.44" height="34.44" fill="#9dadf2"/><path d="M 0 516.56 A 34.44 34.44 0 0 0 34.44 551 L 34.44 542.39 A 25.83 25.83 0 0 1 8.61 516.56" fill="#516fe8"/><rect x="34.44" y="516.56" width="34.44" height="34.44" fill="#385ae5"/><path d="M 34.44 551 A 34.44 34.44 0 0 0 68.88 516.56 L 60.269999999999996 516.56 A 25.83 25.83 0 0 1 34.44 542.39" fill="#768ded"/><rect x="68.88" y="482.13" width="68.88" height="68.88" fill="#ff7192"/><polygon points="68.88,482.13 137.76,551.01 68.88,551.01" fill="#6881eb"/><rect x="137.75" y="482.13" width="68.88" height="68.88" fill="#fff6f8"/><path d="M 137.75 482.13 A 68.88 68.88 0 0 0 206.63 551.01 L 206.63 482.13" fill="#ffe0e7"/><rect x="206.625" y="482.125" width="68.875" height="68.875" fill="#ffffff"/><rect x="206.63" y="482.13" width="34.44" height="34.44" fill="#ff6b8e"/><path d="M 206.63 482.13 A 34.44 34.44 0 0 0 241.07 516.5699999999999 L 241.07 482.13" fill="#ff3867"/><rect x="241.06" y="482.13" width="34.44" height="34.44" fill="#d6ddfa"/><path d="M 241.06 516.5699999999999 A 34.44 34.44 0 0 0 275.5 482.13 L 241.06 482.13" fill="#869aef"/><rect x="206.63" y="516.56" width="34.44" height="34.44" fill="#ff547c"/><path d="M 206.63 551 A 34.44 34.44 0 0 1  241.07 516.56 L 241.07 551" fill="#cbd4f8"/><rect x="241.06" y="516.56" width="34.44" height="34.44" fill="#4464e7"/><path d="M 241.06 516.56 A 34.44 34.44 0 0 1 275.5 551 L 241.06 551" fill="#9aabf2"/><rect x="275.5" y="482.13" width="68.88" height="68.88" fill="#a4b4f3"/><rect x="275.5" y="482.13" width="68.88" height="68.88" fill="#e8ecfc"/><rect x="344.38" y="482.13" width="68.88" height="68.88" fill="#ff6b8e"/><rect x="344.38" y="482.13" width="68.88" height="68.88" fill="#b9c5f6"/><rect x="413.25" y="482.125" width="68.875" height="68.875" fill="#ffffff"/><rect x="413.25" y="482.13" width="34.44" height="34.44" fill="#5d78ea"/><path d="M 413.25 482.13 A 34.44 34.44 0 0 0 447.69 516.5699999999999 L 447.69 482.13" fill="#2d51e4"/><rect x="447.69" y="482.13" width="34.44" height="34.44" fill="#ff6086"/><path d="M 447.69 516.5699999999999 A 34.44 34.44 0 0 0 482.13 482.13 L 447.69 482.13" fill="#ffffff"/><rect x="413.25" y="516.56" width="34.44" height="34.44" fill="#1b42e1"/><path d="M 413.25 551 A 34.44 34.44 0 0 1  447.69 516.56 L 447.69 551" fill="#ff6086"/><rect x="447.69" y="516.56" width="34.44" height="34.44" fill="#96a8f1"/><path d="M 447.69 516.56 A 34.44 34.44 0 0 1 482.13 551 L 447.69 551" fill="#7b92ee"/><rect x="482.13" y="482.13" width="68.88" height="68.88" fill="#ffeaef"/><polygon points="551.01,482.13 551.01,551.01 482.13,551.01" fill="#b0bef5"/><rect x="551" y="482.125" width="68.875" height="68.875" fill="#ffffff"/><rect x="551" y="482.13" width="34.44" height="34.44" fill="#3658e5"/><polygon points="585.44,482.13 585.44,516.5699999999999 551,516.5699999999999" fill="#ff567e"/><rect x="585.44" y="482.13" width="34.44" height="34.44" fill="#ffecf0"/><polygon points="585.44,482.13 619.8800000000001,516.5699999999999 585.44,516.5699999999999" fill="#ffdce5"/><rect x="551" y="516.56" width="34.44" height="34.44" fill="#ff94ae"/><polygon points="551,516.56 585.44,516.56 585.44,551" fill="#bdc8f6"/><rect x="585.44" y="516.56" width="34.44" height="34.44" fill="#bac6f6"/><polygon points="585.44,516.56 619.8800000000001,516.56 585.44,551" fill="#ffc5d3"/><rect x="619.875" y="482.125" width="68.875" height="68.875" fill="#ffffff"/><rect x="619.88" y="482.13" width="34.44" height="34.44" fill="#9eaef2"/><path d="M 619.88 516.5699999999999 A 34.44 34.44 0 0 0 654.3199999999999 482.13 L 619.88 482.13" fill="#3557e5"/><rect x="654.31" y="482.13" width="34.44" height="34.44" fill="#ff3d6b"/><path d="M 654.31 482.13 A 34.44 34.44 0 0 0 688.75 516.5699999999999 L 688.75 482.13" fill="#ffeff3"/><rect x="619.88" y="516.56" width="34.44" height="34.44" fill="#ff7394"/><path d="M 619.88 516.56 A 34.44 34.44 0 0 1 654.3199999999999 551 L 619.88 551" fill="#f2f4fd"/><rect x="654.31" y="516.56" width="34.44" height="34.44" fill="#3557e5"/><path d="M 654.31 551 A 34.44 34.44 0 0 1  688.75 516.56 L 688.75 551" fill="#ff9fb6"/><rect x="688.75" y="482.13" width="68.88" height="68.88" fill="#526fe9"/><rect x="688.75" y="482.13" width="68.88" height="68.88" fill="#6a83ec"/><rect x="757.63" y="482.13" width="68.88" height="68.88" fill="#ffdae3"/><polygon points="757.63,482.13 826.51,482.13 826.51,551.01" fill="#ff88a4"/></g></svg>