<svg width="21" height="21" viewBox="0 0 21 21" fill="none" xmlns="http://www.w3.org/2000/svg">
<path fill-rule="evenodd" clip-rule="evenodd" d="M9.74832 14.853C9.30582 13.9075 9.18738 12.8426 9.41132 11.823C8.39218 12.0471 7.32758 11.929 6.38232 11.487L1.78233 9.49C1.54578 9.39167 1.31326 9.28392 1.08533 9.167C0.919325 9.077 0.628325 8.907 0.475325 8.586C0.389506 8.40463 0.34861 8.20526 0.356095 8.00475C0.363579 7.80423 0.419223 7.60847 0.518325 7.434C0.693325 7.124 0.996325 6.976 1.16832 6.898C1.40397 6.79849 1.6435 6.70842 1.88632 6.628L18.4463 0.830998C18.6733 0.751998 18.8893 0.675998 19.0693 0.630998C19.2433 0.587998 19.5313 0.529998 19.8323 0.634998C20.1923 0.760998 20.4743 1.043 20.5993 1.402C20.7053 1.704 20.6473 1.992 20.6033 2.166C20.5583 2.346 20.4833 2.561 20.4033 2.788L14.6073 19.348C14.5113 19.623 14.4233 19.875 14.3373 20.067C14.2593 20.239 14.1103 20.542 13.8013 20.717C13.6268 20.8159 13.431 20.8714 13.2305 20.8787C13.0299 20.886 12.8306 20.845 12.6493 20.759C12.3283 20.607 12.1573 20.315 12.0673 20.149C11.9673 19.965 11.8613 19.72 11.7453 19.453L9.74832 14.853ZM18.4413 3.855L11.7533 10.543C11.2802 11.0159 10.9646 11.6233 10.8496 12.2823C10.7345 12.9413 10.8255 13.6197 11.1103 14.225L11.1153 14.235L13.1593 18.944L18.4413 3.854V3.855ZM17.3813 2.794L10.6923 9.482C10.2194 9.95508 9.61197 10.2707 8.95301 10.3858C8.29404 10.5008 7.61562 10.4098 7.01032 10.125L7.00032 10.12L2.29033 8.075L17.3803 2.794H17.3813Z" fill="#ACACAC"/>
</svg>
