<svg width="65" height="64" viewBox="0 0 65 64" fill="none" xmlns="http://www.w3.org/2000/svg">
<rect x="0.915344" width="64" height="64" rx="32" fill="white"/>
<g clip-path="url(#clip0_0_144)">
<mask id="mask0_0_144" style="mask-type:alpha" maskUnits="userSpaceOnUse" x="-1" y="-1" width="4" height="3">
<path d="M1.91534 0.5C1.91534 0.223858 1.69149 0 1.41534 0C1.1392 0 0.915344 0.223858 0.915344 0.5C0.915344 0.776142 1.1392 1 1.41534 1C1.69149 1 1.91534 0.776142 1.91534 0.5Z" fill="white" stroke="url(#paint0_linear_0_144)" stroke-width="2"/>
</mask>
<g mask="url(#mask0_0_144)">
<path d="M1.91534 0.5C1.91534 0.223858 1.69149 0 1.41534 0C1.1392 0 0.915344 0.223858 0.915344 0.5C0.915344 0.776142 1.1392 1 1.41534 1C1.69149 1 1.91534 0.776142 1.91534 0.5Z" stroke="url(#paint1_linear_0_144)" stroke-width="2"/>
</g>
</g>
<g clip-path="url(#clip1_0_144)">
<path d="M41.4153 27.5C40.784 27.4105 40.1988 27.1183 39.7479 26.6674C39.297 26.2165 39.0048 25.6313 38.9153 25H37.9153C37.8259 25.6313 37.5337 26.2165 37.0828 26.6674C36.6319 27.1183 36.0467 27.4105 35.4153 27.5V28.5C36.0467 28.5895 36.6319 28.8817 37.0828 29.3326C37.5337 29.7835 37.8259 30.3687 37.9153 31H38.9153C39.0048 30.3687 39.297 29.7835 39.7479 29.3326C40.1988 28.8817 40.784 28.5895 41.4153 28.5V27.5Z" fill="#131313"/>
<path fill-rule="evenodd" clip-rule="evenodd" d="M41.5953 22.474C40.2879 21.69 38.7561 21.3651 37.2429 21.551C35.7298 21.7369 34.3221 22.4228 33.2433 23.5L32.9153 23.83L32.5873 23.502C31.5088 22.4245 30.1012 21.7382 28.5881 21.5519C27.075 21.3657 25.543 21.6902 24.2353 22.474C23.223 23.0807 22.3851 23.9392 21.8033 24.966C21.2215 25.9928 20.9156 27.1528 20.9153 28.333C20.9153 31.505 22.9203 34.497 25.2783 36.9C27.6603 39.327 30.5343 41.289 32.5523 42.406L32.9153 42.607L33.2783 42.407C35.2963 41.289 38.1703 39.327 40.5523 36.9C42.9103 34.497 44.9153 31.505 44.9153 28.333C44.9153 25.933 43.6553 23.708 41.5953 22.473V22.474ZM34.3033 24.562C35.1454 23.721 36.2443 23.1854 37.4255 23.0401C38.6067 22.8948 39.8026 23.1482 40.8233 23.76C41.6137 24.2333 42.2679 24.9034 42.7222 25.7048C43.1764 26.5063 43.4152 27.4118 43.4153 28.333C43.4153 30.898 41.7643 33.523 39.4813 35.85C37.3613 38.01 34.8093 39.797 32.9153 40.889C31.0223 39.798 28.4693 38.009 26.3493 35.849C24.0653 33.524 22.4153 30.899 22.4153 28.334C22.4153 26.461 23.3983 24.725 25.0063 23.761C26.0272 23.1489 27.2233 22.8954 28.4048 23.0407C29.5862 23.186 30.6852 23.7218 31.5273 24.563L32.9153 25.95L34.3033 24.563V24.562Z" fill="#131313"/>
</g>
<defs>
<linearGradient id="paint0_linear_0_144" x1="0.915344" y1="0" x2="0.915344" y2="1" gradientUnits="userSpaceOnUse">
<stop stop-color="#FF9E31"/>
<stop offset="1" stop-color="#F2C94C"/>
</linearGradient>
<linearGradient id="paint1_linear_0_144" x1="0.915344" y1="0" x2="0.915344" y2="1" gradientUnits="userSpaceOnUse">
<stop stop-color="#FF9E31"/>
<stop offset="1" stop-color="#F2C94C"/>
</linearGradient>
<clipPath id="clip0_0_144">
<rect width="1" height="1" fill="white" transform="translate(0.915344)"/>
</clipPath>
<clipPath id="clip1_0_144">
<rect width="24" height="24" fill="white" transform="translate(20.9153 20)"/>
</clipPath>
</defs>
</svg>
