<svg width="65" height="64" viewBox="0 0 65 64" fill="none" xmlns="http://www.w3.org/2000/svg">
<rect x="0.848694" width="63.4667" height="64" rx="31.7333" fill="url(#paint0_linear_0_162)"/>
<g clip-path="url(#clip0_0_162)">
<path fill-rule="evenodd" clip-rule="evenodd" d="M38.5987 22C38.0959 22 37.5999 22.1166 37.1498 22.3407C36.6997 22.5648 36.3078 22.8903 36.0048 23.2916C35.7018 23.6929 35.496 24.159 35.4037 24.6532C35.3114 25.1475 35.335 25.6564 35.4727 26.14L29.3687 29.675C28.9114 29.2288 28.3327 28.9273 27.705 28.8081C27.0773 28.689 26.4284 28.7575 25.8394 29.0051C25.2504 29.2527 24.7475 29.6684 24.3935 30.2003C24.0394 30.7322 23.85 31.3566 23.8489 31.9955C23.8478 32.6344 24.0351 33.2595 24.3873 33.7926C24.7395 34.3257 25.241 34.7431 25.8291 34.9928C26.4173 35.2424 27.0659 35.3132 27.694 35.1962C28.3222 35.0792 28.9019 34.7796 29.3607 34.335L35.4627 37.895C35.332 38.3771 35.3142 38.8828 35.4104 39.373C35.5066 39.8631 35.7144 40.3245 36.0176 40.7214C36.3209 41.1183 36.7114 41.4401 37.159 41.6618C37.6066 41.8836 38.0992 41.9993 38.5987 42C39.1404 42 39.6735 41.8645 40.1495 41.606C40.6255 41.3475 41.0294 40.9741 41.3244 40.5198C41.6194 40.0654 41.7961 39.5446 41.8385 39.0045C41.8809 38.4645 41.7877 37.9224 41.5673 37.4276C41.3469 36.9328 41.0063 36.5009 40.5765 36.1712C40.1467 35.8415 39.6412 35.6245 39.1062 35.5399C38.5712 35.4553 38.0234 35.5057 37.5129 35.6867C37.0023 35.8676 36.545 36.1733 36.1827 36.576L30.1687 33.068C30.4087 32.3799 30.4101 31.631 30.1727 30.942L36.2057 27.449C36.5712 27.8468 37.0302 28.1472 37.5411 28.3231C38.0519 28.4989 38.5986 28.5446 39.1315 28.456C39.6645 28.3675 40.167 28.1474 40.5935 27.8158C41.0201 27.4842 41.3572 27.0515 41.5745 26.5568C41.7917 26.0621 41.8822 25.5211 41.8378 24.9827C41.7933 24.4442 41.6153 23.9253 41.3199 23.473C41.0245 23.0206 40.621 22.649 40.1459 22.3918C39.6707 22.1347 39.139 22 38.5987 22V22ZM36.8487 25.25C36.8487 24.7859 37.0331 24.3408 37.3612 24.0126C37.6894 23.6844 38.1345 23.5 38.5987 23.5C39.0628 23.5 39.5079 23.6844 39.8361 24.0126C40.1643 24.3408 40.3487 24.7859 40.3487 25.25C40.3487 25.7141 40.1643 26.1592 39.8361 26.4874C39.5079 26.8156 39.0628 27 38.5987 27C38.1345 27 37.6894 26.8156 37.3612 26.4874C37.0331 26.1592 36.8487 25.7141 36.8487 25.25V25.25ZM36.8487 38.75C36.8487 38.2859 37.0331 37.8408 37.3612 37.5126C37.6894 37.1844 38.1345 37 38.5987 37C39.0628 37 39.5079 37.1844 39.8361 37.5126C40.1643 37.8408 40.3487 38.2859 40.3487 38.75C40.3487 39.2141 40.1643 39.6592 39.8361 39.9874C39.5079 40.3156 39.0628 40.5 38.5987 40.5C38.1345 40.5 37.6894 40.3156 37.3612 39.9874C37.0331 39.6592 36.8487 39.2141 36.8487 38.75V38.75ZM27.0987 30.25C26.6345 30.25 26.1894 30.4344 25.8612 30.7626C25.5331 31.0908 25.3487 31.5359 25.3487 32C25.3487 32.4641 25.5331 32.9092 25.8612 33.2374C26.1894 33.5656 26.6345 33.75 27.0987 33.75C27.5628 33.75 28.0079 33.5656 28.3361 33.2374C28.6643 32.9092 28.8487 32.4641 28.8487 32C28.8487 31.5359 28.6643 31.0908 28.3361 30.7626C28.0079 30.4344 27.5628 30.25 27.0987 30.25Z" fill="#131313"/>
</g>
<defs>
<linearGradient id="paint0_linear_0_162" x1="32.582" y1="0" x2="32.582" y2="64" gradientUnits="userSpaceOnUse">
<stop offset="0.185417" stop-color="#D8F7FD"/>
<stop offset="0.367708" stop-color="white"/>
<stop offset="0.747917" stop-color="#D2F6FE"/>
<stop offset="1" stop-color="#E6FAFF"/>
</linearGradient>
<clipPath id="clip0_0_162">
<rect width="24" height="24" fill="white" transform="translate(20.8487 20)"/>
</clipPath>
</defs>
</svg>
