<svg width="65" height="64" viewBox="0 0 65 64" fill="none" xmlns="http://www.w3.org/2000/svg">
<rect x="0.915344" width="64" height="64" rx="32" fill="url(#paint0_linear_0_156)"/>
<g clip-path="url(#clip0_0_156)">
<path fill-rule="evenodd" clip-rule="evenodd" d="M32.4294 35.853C31.9869 34.9076 31.8684 33.8426 32.0924 32.823C31.0732 33.0471 30.0086 32.929 29.0634 32.487L24.4634 30.49C24.2268 30.3917 23.9943 30.2839 23.7664 30.167C23.6004 30.077 23.3094 29.907 23.1564 29.586C23.0705 29.4046 23.0296 29.2053 23.0371 29.0048C23.0446 28.8042 23.1003 28.6085 23.1994 28.434C23.3744 28.124 23.6774 27.976 23.8494 27.898C24.085 27.7985 24.3245 27.7084 24.5674 27.628L41.1274 21.831C41.3544 21.752 41.5704 21.676 41.7504 21.631C41.9244 21.588 42.2124 21.53 42.5134 21.635C42.8734 21.761 43.1554 22.043 43.2804 22.402C43.3864 22.704 43.3284 22.992 43.2844 23.166C43.2394 23.346 43.1644 23.561 43.0844 23.788L37.2884 40.348C37.1924 40.623 37.1044 40.875 37.0184 41.067C36.9404 41.239 36.7914 41.542 36.4824 41.717C36.3078 41.8159 36.112 41.8714 35.9115 41.8787C35.711 41.886 35.5116 41.845 35.3304 41.759C35.0094 41.607 34.8384 41.315 34.7484 41.149C34.6484 40.965 34.5424 40.72 34.4264 40.453L32.4294 35.853V35.853ZM41.1224 24.855L34.4344 31.543C33.9613 32.016 33.6457 32.6234 33.5306 33.2823C33.4155 33.9413 33.5066 34.6197 33.7914 35.225L33.7964 35.235L35.8404 39.944L41.1224 24.854V24.855ZM40.0624 23.794L33.3734 30.482C32.9004 30.9551 32.293 31.2707 31.634 31.3858C30.9751 31.5009 30.2966 31.4098 29.6914 31.125L29.6814 31.12L24.9714 29.075L40.0614 23.794H40.0624Z" fill="#131313"/>
<path d="M28.8854 34.97L24.3854 39.47L25.4454 40.53L29.9454 36.03L28.8854 34.97V34.97ZM23.8394 35.52L26.3394 32.52L27.4924 33.48L24.9924 36.48L23.8394 35.52ZM31.4354 37.424L28.4354 39.924L29.3954 41.076L32.3954 38.576L31.4354 37.424Z" fill="#131313"/>
</g>
<defs>
<linearGradient id="paint0_linear_0_156" x1="32.9153" y1="0" x2="32.9153" y2="64" gradientUnits="userSpaceOnUse">
<stop offset="0.185417" stop-color="#D8F7FD"/>
<stop offset="0.367708" stop-color="white"/>
<stop offset="0.747917" stop-color="#D2F6FE"/>
<stop offset="1" stop-color="#E6FAFF"/>
</linearGradient>
<clipPath id="clip0_0_156">
<rect width="24" height="24" fill="white" transform="translate(20.9153 20)"/>
</clipPath>
</defs>
</svg>
